<svg width="282" height="39" viewBox="0 0 282 39" fill="none" xmlns="http://www.w3.org/2000/svg">
<path d="M107.793 25.7418L99.3471 17.3162C99.982 16.2112 100.3 14.9703 100.3 13.729C100.3 9.77801 97.0357 6.52118 93.0754 6.52118C92.1258 6.52118 91.2184 6.68975 90.353 7.0632C89.2238 6.38099 87.902 5.9873 86.4926 5.9873C82.3717 5.9873 79 9.35093 79 13.462C79 16.2141 80.5111 18.6309 82.7463 19.9282V35.0852C82.7463 35.2453 82.7998 35.4055 82.9603 35.5123L86.1715 38.1818C86.225 38.2352 86.3855 38.2886 86.4926 38.2886C86.5996 38.2886 86.7602 38.2352 86.7602 38.1818L89.9713 35.5123C90.1319 35.4055 90.1854 35.2453 90.1854 35.0852V34.0173C90.1854 33.8572 90.1319 33.7504 90.0248 33.6436L88.2587 31.8818L89.7573 30.3868C89.9713 30.1733 89.9713 29.8529 89.7573 29.6393L88.2587 28.1444L88.6859 27.7182L97.2498 36.3131C97.678 36.6868 98.1597 36.9004 98.6948 36.9538C98.6948 36.9538 98.7483 36.9538 98.8019 36.9538C99.337 36.9538 99.8187 36.7936 100.14 36.4199L107.9 28.6249C108.703 27.8775 108.596 26.5427 107.793 25.7418ZM93.0754 7.589C96.4471 7.589 99.23 10.3653 99.23 13.729C99.23 14.7012 98.9944 15.6729 98.5513 16.5392C97.9142 16.0001 97.1462 15.6783 96.3401 15.5442L93.8054 15.1611C93.9314 14.5947 93.9853 14.0284 93.9853 13.462C93.9853 11.2216 92.9838 9.20342 91.4055 7.8304C91.9497 7.67405 92.5019 7.589 93.0754 7.589ZM80.0704 13.462C80.0704 9.93818 82.9604 7.05512 86.4926 7.05512C90.0247 7.05512 92.9148 9.93824 92.9148 13.462C92.9148 13.9737 92.8645 14.4853 92.7191 14.9969L89.2755 14.4764C88.5168 14.3923 87.7919 14.5411 87.2042 14.9206C87.1238 14.5162 87.0813 14.1 87.0813 13.6755C87.0813 13.5765 87.0813 13.4776 87.0813 13.3787C87.9747 13.1219 88.6333 12.2973 88.6333 11.3263C88.6333 10.1517 87.67 9.1907 86.4926 9.1907C85.3151 9.1907 84.3518 10.1517 84.3518 11.3263C84.3518 12.3204 85.0419 13.1613 85.9676 13.3964C85.9577 13.5031 85.9574 13.6074 85.9574 13.729C85.9574 14.476 86.0703 15.2078 86.2833 15.9043C86.0483 16.32 85.9182 16.7936 85.9174 17.2933C85.9139 17.4726 85.9266 17.6553 85.9574 17.84L86.1581 19.1079L86.2736 19.8686C82.8507 19.7593 80.0704 16.9307 80.0704 13.462ZM87.5629 11.3263C87.5629 11.6212 87.4414 11.8891 87.2459 12.0829C87.3224 11.7705 87.4239 11.4669 87.5508 11.1743C87.558 11.2241 87.5629 11.2746 87.5629 11.3263ZM86.1282 12.3287C85.7178 12.179 85.4223 11.786 85.4223 11.3263C85.4223 10.739 85.9039 10.2585 86.4926 10.2585C86.6027 10.2585 86.709 10.2754 86.8091 10.3065C86.4925 10.9432 86.2653 11.6219 86.1282 12.3287ZM88.6868 30.0131L87.1883 31.5081C86.9742 31.7216 86.9742 32.0419 87.1883 32.2555L89.1685 34.231V34.8183L86.4926 37.0607L83.8167 34.8183H83.8702V20.7231C84.1939 20.8523 84.5354 20.955 84.887 21.0321V33.8572C84.887 34.1776 85.1011 34.3911 85.4222 34.3911C85.7433 34.3911 85.9574 34.1241 85.9574 33.8572V21.1849C86.1298 21.1968 86.303 21.2031 86.4763 21.2034L87.0277 24.8342C87.0423 24.9214 87.0604 25.0079 87.0802 25.0942L87.0812 25.1011C87.1883 25.7952 87.4558 26.4893 87.884 27.0766L87.1883 27.7706C86.9742 27.9842 86.9742 28.3045 87.1883 28.5181L88.6868 30.0131ZM107.151 27.8775L99.3905 35.6191C99.23 35.7793 99.0159 35.8326 98.7483 35.8326C98.4807 35.8326 98.2131 35.7258 97.999 35.5123L89.115 26.6495C88.5798 26.1156 88.2052 25.4215 88.0981 24.674L87.4508 20.4119C87.4557 20.3571 87.4559 20.2999 87.4559 20.2426L87.0879 17.6732C87.7274 18.6975 88.6191 19.5728 89.7133 20.2048C89.7071 20.27 89.7036 20.336 89.7036 20.4028C89.7036 21.5774 90.667 22.5384 91.8444 22.5384C93.0218 22.5384 93.9851 21.5774 93.9851 20.4028C93.9851 19.2282 93.0218 18.2671 91.8444 18.2671C91.1504 18.2671 90.531 18.6012 90.1393 19.1159C88.9559 18.3768 88.0619 17.3188 87.5551 16.0865C87.5578 16.0838 87.5603 16.0808 87.5629 16.0781C87.6928 15.9486 87.8489 15.8388 88.0214 15.7544C88.2615 15.65 88.5189 15.5976 88.7939 15.5976C88.9009 15.5976 89.0079 15.5976 89.0615 15.5976L89.7451 15.701L93.0219 16.2384C93.081 16.2384 93.1373 16.2328 93.1907 16.2218L96.126 16.6655C96.8752 16.7723 97.5709 17.146 98.1062 17.68L107.044 26.5428C107.418 26.9164 107.472 27.5571 107.151 27.8775ZM92.6033 21.1537C92.4091 21.349 92.1403 21.4706 91.8444 21.4706C91.3678 21.4706 90.9615 21.1555 90.8241 20.724C91.3979 20.9361 91.9965 21.0826 92.6033 21.1537ZM91.1239 19.6165C91.3146 19.4424 91.5672 19.335 91.8445 19.335C92.3086 19.335 92.7052 19.6342 92.8527 20.0486C92.2646 19.9878 91.6927 19.8438 91.1239 19.6165Z" fill="url(#paint0_linear)"/>
<path d="M101.854 29.1053L98.4291 32.5223C98.215 32.7359 98.215 33.0562 98.4291 33.2698C98.5361 33.3766 98.6431 33.43 98.8037 33.43C98.9642 33.43 99.0713 33.3766 99.1783 33.2698L102.603 29.8528C102.818 29.6393 102.818 29.3189 102.603 29.1053C102.389 28.8918 102.068 28.8918 101.854 29.1053Z" fill="url(#paint1_linear)"/>
<path d="M99.8207 29.1053C99.6067 28.8918 99.2855 28.8918 99.0714 29.1053L96.8236 31.3478C96.6096 31.5613 96.6096 31.8817 96.8236 32.0953C96.9307 32.2021 97.0377 32.2554 97.1982 32.2554C97.3588 32.2554 97.4658 32.2021 97.5728 32.1486L99.8206 29.8528C100.035 29.6392 100.035 29.3189 99.8207 29.1053Z" fill="url(#paint2_linear)"/>
<path d="M99.3926 26.4366C99.1786 26.2231 98.8574 26.2231 98.6433 26.4366L95.2182 29.8536C95.0041 30.0672 95.0041 30.3875 95.2182 30.6011C95.3252 30.7079 95.4322 30.7613 95.5928 30.7613C95.7533 30.7613 95.8604 30.7079 95.9674 30.6011L99.3925 27.1841C99.6067 26.9705 99.6067 26.6502 99.3926 26.4366Z" fill="url(#paint3_linear)"/>
<path d="M280.961 23.5019C279.81 21.9692 278.66 21.9692 275.848 23.4381L270.352 26.8228C269.585 27.2699 267.86 27.3976 266.262 27.3976C266.582 26.8228 266.454 26.1203 265.879 25.2901C264.856 23.8212 263.131 22.9272 261.277 22.9272H258.785C257.443 22.9272 256.165 22.544 255.142 21.7776C252.836 20.0493 249.23 21.9299 247.473 23.0516V21.7138H243V38.3183H247.473V36.4024H255.781C257.06 36.4024 258.402 36.2747 259.68 36.147L267.988 34.8697C268.307 34.8697 268.627 34.8058 268.882 34.7419C269.649 34.6142 270.352 34.231 270.991 33.6562L280.641 26.0565C281.408 25.4179 281.536 24.2683 280.961 23.5019ZM246.195 37.041H244.278V22.991H246.195V23.949V36.4024V37.041ZM279.874 25.2263L270.16 32.7622L270.097 32.826C269.649 33.2092 269.202 33.4646 268.691 33.5285H268.627C268.371 33.5924 268.179 33.5924 267.924 33.5924L259.488 34.8697C258.274 35.0613 256.996 35.1251 255.781 35.1251H247.473V24.5876C249.007 23.5019 252.586 21.4583 254.375 22.8633C255.59 23.7574 257.123 24.2682 258.785 24.2682H261.277C262.747 24.2682 264.089 24.9068 264.92 26.1842C265.176 26.5673 265.24 26.9505 265.176 27.0783C264.984 27.3976 264.217 27.5253 263.386 27.5892C263.209 27.5892 263.031 27.5892 262.875 27.5892C262.807 27.5892 262.742 27.5892 262.683 27.5892H256.676C254.695 27.5892 253.481 28.5472 253.481 30.1437C253.481 30.5269 253.736 30.7823 254.12 30.7823C254.503 30.7823 254.759 30.5269 254.759 30.1437C254.759 29.8244 254.759 28.8664 256.676 28.8664H262.619C262.694 28.8664 262.778 28.8664 262.875 28.8664C263.029 28.8664 263.215 28.8664 263.45 28.8664C263.514 28.8664 263.642 28.8664 263.77 28.8664C266.773 28.9303 269.585 28.8664 271.055 28.1001L276.551 24.7153C279.235 23.3741 279.491 23.6935 280.002 24.4598C280.13 24.6515 280.13 25.0347 279.874 25.2263Z" fill="url(#paint4_linear)"/>
<path d="M271.757 7.66338C273.163 7.66338 274.314 6.51383 274.314 5.10885C274.314 3.70387 273.163 2.55432 271.757 2.55432C270.352 2.55432 269.201 3.70387 269.201 5.10885C269.201 6.51383 270.351 7.66338 271.757 7.66338ZM271.757 3.83155C272.46 3.83155 273.036 4.40632 273.036 5.10885C273.036 5.81138 272.46 6.38615 271.757 6.38615C271.054 6.38615 270.479 5.81138 270.479 5.10885C270.479 4.40632 271.054 3.83155 271.757 3.83155Z" fill="url(#paint5_linear)"/>
<path d="M256.42 19.8616C256.484 20.1809 256.739 20.3725 257.059 20.3725H260.254C260.638 20.3725 260.893 20.1171 260.957 19.8616V17.9457H263.514C263.897 17.9457 264.153 17.6903 264.153 17.3071V15.3912H266.07C266.453 15.3912 266.709 15.1357 266.709 14.7525V12.8366H268.626C268.818 12.8366 269.01 12.7089 269.137 12.5812C269.137 12.5812 269.668 11.9543 270.143 11.4129C270.46 11.4662 270.785 11.4955 271.119 11.4955C274.314 11.4955 276.87 8.94096 276.87 5.74774C276.87 2.55453 274.314 0 271.119 0C267.923 0 265.367 2.55453 265.367 5.74774C265.367 6.12494 265.404 6.49278 265.472 6.84895L255.973 16.0936C255.781 16.2214 255.717 16.4768 255.781 16.6684L256.42 19.8616ZM271.118 1.27723C273.611 1.27723 275.592 3.25698 275.592 5.74767C275.592 8.23836 273.611 10.2181 271.118 10.2181C270.726 10.2181 270.346 10.1688 269.985 10.0764C268.411 9.61871 267.216 8.41468 266.837 6.89722C266.819 6.84303 266.79 6.78922 266.754 6.73788C266.683 6.41974 266.645 6.08872 266.645 5.74767C266.645 3.25698 268.626 1.27723 271.118 1.27723ZM265.878 8.17452C266.01 8.45315 266.167 8.71756 266.343 8.96768C266.345 8.97022 266.347 8.97277 266.348 8.97531C266.367 9.00173 266.385 9.02837 266.404 9.05449C266.975 9.86823 267.751 10.5251 268.66 10.9514C268.485 11.1325 268.364 11.3106 268.243 11.4315H266.006C265.622 11.4315 265.367 11.6869 265.367 12.0701V13.986H263.45C263.066 13.986 262.811 14.2415 262.811 14.6246V16.5406H260.254C259.871 16.5406 259.615 16.796 259.615 17.1792V19.0951H257.57L257.123 16.796L265.878 8.17452Z" fill="url(#paint6_linear)"/>
<path d="M190.272 30.3324H189.279V13.5632C189.279 12.6702 188.635 11.9756 187.791 11.9756H163.977C163.183 11.9756 162.488 12.6702 162.488 13.5632V30.3325H161.496C161.198 30.3325 161 30.5309 161 30.8286V32.6147C161 33.5573 161.744 34.3015 162.687 34.3015H189.081C190.024 34.3015 190.768 33.5573 190.768 32.6147V30.8286C190.768 30.5309 190.569 30.3324 190.272 30.3324ZM163.481 13.5632C163.481 13.216 163.729 12.9679 163.977 12.9679H187.791C188.039 12.9679 188.287 13.216 188.287 13.5632V30.3325H179.357C179.208 30.3325 179.109 30.3821 179.01 30.4813L178.166 31.3247H173.602L172.758 30.4813C172.659 30.382 172.56 30.3324 172.411 30.3324H163.481V13.5632H163.481ZM189.776 32.6147C189.776 33.0116 189.478 33.3093 189.081 33.3093H162.687C162.29 33.3093 161.992 33.0116 161.992 32.6147V31.3247H162.985H172.213L173.056 32.1681C173.155 32.2674 173.254 32.317 173.403 32.317H178.365C178.513 32.317 178.613 32.2674 178.712 32.1681L179.555 31.3247H188.783H189.776V32.6147Z" fill="url(#paint7_linear)"/>
<circle cx="171.645" cy="21.9548" r="3.99186" fill="url(#paint8_linear)"/>
<path d="M178.365 16.9361H182.334C182.632 16.9361 182.83 16.7376 182.83 16.44C182.83 16.1423 182.632 15.9438 182.334 15.9438H178.365C178.068 15.9438 177.869 16.1423 177.869 16.44C177.869 16.7376 178.068 16.9361 178.365 16.9361Z" fill="url(#paint9_linear)"/>
<path d="M178.365 18.9207H180.846C181.144 18.9207 181.342 18.7223 181.342 18.4246C181.342 18.1269 181.144 17.9285 180.846 17.9285H178.365C178.068 17.9285 177.869 18.1269 177.869 18.4246C177.869 18.7222 178.068 18.9207 178.365 18.9207Z" fill="url(#paint10_linear)"/>
<path d="M186.799 17.9285H182.83C182.532 17.9285 182.334 18.1269 182.334 18.4246C182.334 18.7223 182.532 18.9207 182.83 18.9207H186.799C187.097 18.9207 187.295 18.7223 187.295 18.4246C187.295 18.1269 187.097 17.9285 186.799 17.9285Z" fill="url(#paint11_linear)"/>
<path d="M184.319 16.9361H186.8C187.098 16.9361 187.296 16.7376 187.296 16.44C187.296 16.1423 187.098 15.9438 186.8 15.9438H184.319C184.022 15.9438 183.823 16.1423 183.823 16.44C183.823 16.7376 184.022 16.9361 184.319 16.9361Z" fill="url(#paint12_linear)"/>
<path d="M178.365 20.906H182.334C182.632 20.906 182.83 20.7076 182.83 20.4099C182.83 20.1123 182.632 19.9138 182.334 19.9138H178.365C178.068 19.9138 177.869 20.1123 177.869 20.4099C177.869 20.7076 178.068 20.906 178.365 20.906Z" fill="url(#paint13_linear)"/>
<path d="M178.365 22.8898H180.846C181.144 22.8898 181.342 22.6914 181.342 22.3937C181.342 22.096 181.144 21.8976 180.846 21.8976H178.365C178.068 21.8976 177.869 22.096 177.869 22.3937C177.869 22.6914 178.068 22.8898 178.365 22.8898Z" fill="url(#paint14_linear)"/>
<path d="M186.799 21.8976H182.83C182.532 21.8976 182.334 22.096 182.334 22.3937C182.334 22.6914 182.532 22.8898 182.83 22.8898H186.799C187.097 22.8898 187.295 22.6914 187.295 22.3937C187.295 22.096 187.097 21.8976 186.799 21.8976Z" fill="url(#paint15_linear)"/>
<path d="M186.8 19.9138H184.319C184.022 19.9138 183.823 20.1123 183.823 20.4099C183.823 20.7076 184.022 20.906 184.319 20.906H186.8C187.098 20.906 187.296 20.7076 187.296 20.4099C187.296 20.1123 187.098 19.9138 186.8 19.9138Z" fill="url(#paint16_linear)"/>
<path d="M178.365 24.8744H182.334C182.632 24.8744 182.83 24.676 182.83 24.3783C182.83 24.0806 182.632 23.8822 182.334 23.8822H178.365C178.068 23.8822 177.869 24.0806 177.869 24.3783C177.869 24.676 178.068 24.8744 178.365 24.8744Z" fill="url(#paint17_linear)"/>
<path d="M178.365 26.8589H180.846C181.144 26.8589 181.342 26.6605 181.342 26.3628C181.342 26.0651 181.144 25.8667 180.846 25.8667H178.365C178.068 25.8667 177.869 26.0651 177.869 26.3628C177.869 26.6605 178.068 26.8589 178.365 26.8589Z" fill="url(#paint18_linear)"/>
<path d="M186.799 25.8667H182.83C182.532 25.8667 182.334 26.0651 182.334 26.3628C182.334 26.6605 182.532 26.8589 182.83 26.8589H186.799C187.097 26.8589 187.295 26.6605 187.295 26.3628C187.295 26.0651 187.097 25.8667 186.799 25.8667Z" fill="url(#paint19_linear)"/>
<path d="M186.8 23.8822H184.319C184.022 23.8822 183.823 24.0806 183.823 24.3783C183.823 24.676 184.022 24.8744 184.319 24.8744H186.8C187.098 24.8744 187.296 24.676 187.296 24.3783C187.296 24.0806 187.098 23.8822 186.8 23.8822Z" fill="url(#paint20_linear)"/>
<path d="M25.8454 8.64941H1.23075C0.553829 8.64941 0 9.09593 0 9.64169V37.425C0 37.9708 0.553829 38.4173 1.23075 38.4173H25.8453C26.5223 38.4173 27.0761 37.9708 27.0761 37.425V9.64169C27.0761 9.09593 26.5223 8.64941 25.8454 8.64941ZM25.8454 37.4249H1.23075V9.64169H25.8453V37.4249H25.8454Z" fill="url(#paint21_linear)"/>
<path d="M10.2777 14.95L11.0777 14.3051V16.5873C11.0777 16.8849 11.3238 17.0834 11.693 17.0834C12.0622 17.0834 12.3083 16.8849 12.3083 16.5873V13.3128L13.5392 12.3206L14.7699 13.3129V16.5873C14.7699 16.885 15.0161 17.0834 15.3853 17.0834C15.7545 17.0834 16.0006 16.885 16.0006 16.5873V14.3051L16.8006 14.95C16.9237 15.0493 17.0467 15.0989 17.2313 15.0989C17.4159 15.0989 17.539 15.0493 17.662 14.95C17.9081 14.7516 17.9081 14.4539 17.662 14.2554L15.9212 12.8519C15.8715 12.7799 15.8 12.7221 15.7106 12.6821L13.9698 11.2786C13.7236 11.0802 13.3544 11.0802 13.1082 11.2786L11.3674 12.6821C11.2781 12.7221 11.2065 12.7798 11.1568 12.8519L9.41604 14.2554C9.16991 14.4538 9.16991 14.7515 9.41604 14.95C9.66216 15.1485 10.0316 15.1485 10.2777 14.95Z" fill="url(#paint22_linear)"/>
<path d="M4.30772 21.5486H12.9229C13.2921 21.5486 13.5382 21.3502 13.5382 21.0525C13.5382 20.7548 13.2921 20.5564 12.9229 20.5564H4.30772C3.9385 20.5564 3.69238 20.7548 3.69238 21.0525C3.69238 21.3501 3.9385 21.5486 4.30772 21.5486Z" fill="url(#paint23_linear)"/>
<path d="M4.30772 23.5324H10.4614C10.8306 23.5324 11.0767 23.3339 11.0767 23.0363C11.0767 22.7386 10.8306 22.5402 10.4614 22.5402H4.30772C3.9385 22.5402 3.69238 22.7386 3.69238 23.0363C3.69238 23.3339 3.9385 23.5324 4.30772 23.5324Z" fill="url(#paint24_linear)"/>
<path d="M4.30772 29.4861H10.4614C10.8306 29.4861 11.0767 29.2877 11.0767 28.99C11.0767 28.6923 10.8306 28.4939 10.4614 28.4939H4.30772C3.9385 28.4939 3.69238 28.6923 3.69238 28.99C3.69238 29.2877 3.9385 29.4861 4.30772 29.4861Z" fill="url(#paint25_linear)"/>
<path d="M16.1865 21.2007C15.9404 21.3991 15.9404 21.6968 16.1865 21.8953L18.0326 23.3837C18.1557 23.4829 18.2788 23.5325 18.4634 23.5325C18.7095 23.5325 18.8326 23.4333 18.9557 23.3837L22.0325 19.9108C22.2787 19.6627 22.1556 19.365 21.9094 19.2162C21.6017 19.0178 21.2325 19.117 21.0479 19.3154L18.4019 22.2922L17.0481 21.2008C16.802 21.0023 16.4327 21.0023 16.1865 21.2007Z" fill="url(#paint26_linear)"/>
<path d="M4.30772 27.5015H12.9229C13.2921 27.5015 13.5382 27.3031 13.5382 27.0054C13.5382 26.7077 13.2921 26.5093 12.9229 26.5093H4.30772C3.9385 26.5093 3.69238 26.7077 3.69238 27.0054C3.69238 27.3031 3.9385 27.5015 4.30772 27.5015Z" fill="url(#paint27_linear)"/>
<path d="M21.9095 25.1698C21.6018 24.9714 21.2325 25.0706 21.0479 25.2691L18.4019 28.2458L17.0481 27.1544C16.802 26.9559 16.4328 26.9559 16.1866 27.1544C15.9404 27.3528 15.9404 27.6505 16.1866 27.849L18.0327 29.3374C18.1558 29.4366 18.2788 29.4862 18.4634 29.4862C18.7095 29.4862 18.8326 29.387 18.9557 29.3374L22.0326 25.8645C22.2787 25.6163 22.1557 25.3187 21.9095 25.1698Z" fill="url(#paint28_linear)"/>
<path d="M4.30772 33.4552H12.9229C13.2921 33.4552 13.5382 33.2568 13.5382 32.9591C13.5382 32.6614 13.2921 32.463 12.9229 32.463H4.30772C3.9385 32.463 3.69238 32.6614 3.69238 32.9591C3.69238 33.2568 3.9385 33.4552 4.30772 33.4552Z" fill="url(#paint29_linear)"/>
<path d="M4.30772 35.4397H10.4614C10.8306 35.4397 11.0767 35.2413 11.0767 34.9436C11.0767 34.6459 10.8306 34.4475 10.4614 34.4475H4.30772C3.9385 34.4475 3.69238 34.6459 3.69238 34.9436C3.69238 35.2413 3.9385 35.4397 4.30772 35.4397Z" fill="url(#paint30_linear)"/>
<path d="M21.3534 32.1156C21.1073 31.9172 20.7381 31.9172 20.4919 32.1156L19.3843 33.0087L18.2766 32.1156C18.0305 31.9172 17.6613 31.9172 17.4151 32.1156C17.1689 32.3141 17.1689 32.6117 17.4151 32.8102L18.5227 33.7033L17.4151 34.5963C17.1689 34.7947 17.1689 35.0924 17.4151 35.2909C17.5382 35.3901 17.6612 35.4397 17.8458 35.4397C18.0304 35.4397 18.1535 35.3901 18.2765 35.2909L19.3842 34.3979L20.4918 35.2909C20.6149 35.3901 20.738 35.4397 20.9226 35.4397C21.1072 35.4397 21.2303 35.3901 21.3533 35.2909C21.5994 35.0925 21.5994 34.7948 21.3533 34.5963L20.2456 33.7033L21.3533 32.8102C21.5996 32.6117 21.5996 32.3141 21.3534 32.1156Z" fill="url(#paint31_linear)"/>
<defs>
<linearGradient id="paint0_linear" x1="108.068" y1="6.76847" x2="74.5519" y2="15.7755" gradientUnits="userSpaceOnUse">
<stop stop-color="#1F1842"/>
<stop offset="1" stop-color="#1F1844"/>
</linearGradient>
<linearGradient id="paint1_linear" x1="102.706" y1="29.0536" x2="97.6605" y2="30.5442" gradientUnits="userSpaceOnUse">
<stop stop-color="#1F1842"/>
<stop offset="1" stop-color="#1F1844"/>
</linearGradient>
<linearGradient id="paint2_linear" x1="99.9381" y1="29.0252" x2="96.2143" y2="30.1254" gradientUnits="userSpaceOnUse">
<stop stop-color="#1F1842"/>
<stop offset="1" stop-color="#1F1844"/>
</linearGradient>
<linearGradient id="paint3_linear" x1="99.4947" y1="26.3849" x2="94.4496" y2="27.8755" gradientUnits="userSpaceOnUse">
<stop stop-color="#1F1842"/>
<stop offset="1" stop-color="#1F1844"/>
</linearGradient>
<linearGradient id="paint4_linear" x1="280.82" y1="21.4949" x2="248.104" y2="42.9272" gradientUnits="userSpaceOnUse">
<stop stop-color="#1F1842"/>
<stop offset="1" stop-color="#1F1844"/>
</linearGradient>
<linearGradient id="paint5_linear" x1="274.247" y1="2.67788" x2="268.508" y2="4.37059" gradientUnits="userSpaceOnUse">
<stop stop-color="#1F1842"/>
<stop offset="1" stop-color="#1F1844"/>
</linearGradient>
<linearGradient id="paint6_linear" x1="276.596" y1="0.492684" x2="253.031" y2="7.69061" gradientUnits="userSpaceOnUse">
<stop stop-color="#1F1842"/>
<stop offset="1" stop-color="#1F1844"/>
</linearGradient>
<linearGradient id="paint7_linear" x1="190.381" y1="12.5155" x2="158.917" y2="24.8805" gradientUnits="userSpaceOnUse">
<stop stop-color="#1F1842"/>
<stop offset="1" stop-color="#1F1844"/>
</linearGradient>
<linearGradient id="paint8_linear" x1="175.533" y1="18.156" x2="166.57" y2="20.7978" gradientUnits="userSpaceOnUse">
<stop stop-color="#1F1842"/>
<stop offset="1" stop-color="#1F1844"/>
</linearGradient>
<linearGradient id="paint9_linear" x1="182.766" y1="15.9678" x2="180.857" y2="18.7806" gradientUnits="userSpaceOnUse">
<stop stop-color="#1F1842"/>
<stop offset="1" stop-color="#1F1844"/>
</linearGradient>
<linearGradient id="paint10_linear" x1="181.297" y1="17.9525" x2="179.244" y2="20.0703" gradientUnits="userSpaceOnUse">
<stop stop-color="#1F1842"/>
<stop offset="1" stop-color="#1F1844"/>
</linearGradient>
<linearGradient id="paint11_linear" x1="187.231" y1="17.9525" x2="185.322" y2="20.7652" gradientUnits="userSpaceOnUse">
<stop stop-color="#1F1842"/>
<stop offset="1" stop-color="#1F1844"/>
</linearGradient>
<linearGradient id="paint12_linear" x1="187.251" y1="15.9678" x2="185.198" y2="18.0857" gradientUnits="userSpaceOnUse">
<stop stop-color="#1F1842"/>
<stop offset="1" stop-color="#1F1844"/>
</linearGradient>
<linearGradient id="paint13_linear" x1="182.766" y1="19.9378" x2="180.857" y2="22.7506" gradientUnits="userSpaceOnUse">
<stop stop-color="#1F1842"/>
<stop offset="1" stop-color="#1F1844"/>
</linearGradient>
<linearGradient id="paint14_linear" x1="181.297" y1="21.9216" x2="179.244" y2="24.0394" gradientUnits="userSpaceOnUse">
<stop stop-color="#1F1842"/>
<stop offset="1" stop-color="#1F1844"/>
</linearGradient>
<linearGradient id="paint15_linear" x1="187.231" y1="21.9216" x2="185.322" y2="24.7343" gradientUnits="userSpaceOnUse">
<stop stop-color="#1F1842"/>
<stop offset="1" stop-color="#1F1844"/>
</linearGradient>
<linearGradient id="paint16_linear" x1="187.251" y1="19.9378" x2="185.198" y2="22.0556" gradientUnits="userSpaceOnUse">
<stop stop-color="#1F1842"/>
<stop offset="1" stop-color="#1F1844"/>
</linearGradient>
<linearGradient id="paint17_linear" x1="182.766" y1="23.9062" x2="180.857" y2="26.7189" gradientUnits="userSpaceOnUse">
<stop stop-color="#1F1842"/>
<stop offset="1" stop-color="#1F1844"/>
</linearGradient>
<linearGradient id="paint18_linear" x1="181.297" y1="25.8907" x2="179.244" y2="28.0085" gradientUnits="userSpaceOnUse">
<stop stop-color="#1F1842"/>
<stop offset="1" stop-color="#1F1844"/>
</linearGradient>
<linearGradient id="paint19_linear" x1="187.231" y1="25.8907" x2="185.322" y2="28.7034" gradientUnits="userSpaceOnUse">
<stop stop-color="#1F1842"/>
<stop offset="1" stop-color="#1F1844"/>
</linearGradient>
<linearGradient id="paint20_linear" x1="187.251" y1="23.9062" x2="185.198" y2="26.024" gradientUnits="userSpaceOnUse">
<stop stop-color="#1F1842"/>
<stop offset="1" stop-color="#1F1844"/>
</linearGradient>
<linearGradient id="paint21_linear" x1="26.7241" y1="9.36931" x2="-4.09933" y2="17.6327" gradientUnits="userSpaceOnUse">
<stop stop-color="#1F1844"/>
<stop offset="1" stop-color="#1F1842"/>
</linearGradient>
<linearGradient id="paint22_linear" x1="17.7346" y1="11.2737" x2="8.84016" y2="15.0672" gradientUnits="userSpaceOnUse">
<stop stop-color="#1F1844"/>
<stop offset="1" stop-color="#1F1842"/>
</linearGradient>
<linearGradient id="paint23_linear" x1="13.4102" y1="20.5804" x2="12.1527" y2="24.2582" gradientUnits="userSpaceOnUse">
<stop stop-color="#1F1844"/>
<stop offset="1" stop-color="#1F1842"/>
</linearGradient>
<linearGradient id="paint24_linear" x1="10.9807" y1="22.5642" x2="9.43026" y2="25.9651" gradientUnits="userSpaceOnUse">
<stop stop-color="#1F1844"/>
<stop offset="1" stop-color="#1F1842"/>
</linearGradient>
<linearGradient id="paint25_linear" x1="10.9807" y1="28.5179" x2="9.43026" y2="31.9188" gradientUnits="userSpaceOnUse">
<stop stop-color="#1F1844"/>
<stop offset="1" stop-color="#1F1842"/>
</linearGradient>
<linearGradient id="paint26_linear" x1="22.0866" y1="19.215" x2="15.6498" y2="21.8584" gradientUnits="userSpaceOnUse">
<stop stop-color="#1F1844"/>
<stop offset="1" stop-color="#1F1842"/>
</linearGradient>
<linearGradient id="paint27_linear" x1="13.4102" y1="26.5333" x2="12.1527" y2="30.2111" gradientUnits="userSpaceOnUse">
<stop stop-color="#1F1844"/>
<stop offset="1" stop-color="#1F1842"/>
</linearGradient>
<linearGradient id="paint28_linear" x1="22.0866" y1="25.1686" x2="15.6498" y2="27.812" gradientUnits="userSpaceOnUse">
<stop stop-color="#1F1844"/>
<stop offset="1" stop-color="#1F1842"/>
</linearGradient>
<linearGradient id="paint29_linear" x1="13.4102" y1="32.487" x2="12.1527" y2="36.1648" gradientUnits="userSpaceOnUse">
<stop stop-color="#1F1844"/>
<stop offset="1" stop-color="#1F1842"/>
</linearGradient>
<linearGradient id="paint30_linear" x1="10.9807" y1="34.4715" x2="9.43026" y2="37.8724" gradientUnits="userSpaceOnUse">
<stop stop-color="#1F1844"/>
<stop offset="1" stop-color="#1F1842"/>
</linearGradient>
<linearGradient id="paint31_linear" x1="21.4821" y1="32.0508" x2="16.8455" y2="33.7458" gradientUnits="userSpaceOnUse">
<stop stop-color="#1F1844"/>
<stop offset="1" stop-color="#1F1842"/>
</linearGradient>
</defs>
</svg>
