<svg width="504" height="446" viewBox="0 0 504 446" fill="none" xmlns="http://www.w3.org/2000/svg">
<g filter="url(#filter0_d)">
<g opacity="0.5">
<path d="M108.069 163.883C103.236 164.146 98.4781 166.096 94.7847 169.733C86.8218 177.575 86.8218 190.289 94.7847 198.132C98.7668 202.053 103.985 204.013 109.204 204.013C114.423 204.013 119.642 202.053 123.623 198.132C127.315 194.495 129.296 189.81 129.564 185.05L108.069 163.883ZM103.484 190.642H99.4458L103.726 183.615L105.691 186.838L103.484 190.642ZM105.44 190.642L112.223 178.954L119.005 190.642H105.44ZM125.218 183.137C123.913 182.914 122.634 182.554 121.394 182.059C119.077 181.134 116.997 179.774 115.212 178.016C113.297 176.131 111.852 173.92 110.914 171.444C110.509 170.371 110.208 169.275 110.012 168.161L125.218 183.137ZM126.323 191.34C125.39 193.431 124.077 195.318 122.422 196.949C120.637 198.706 118.556 200.067 116.24 200.992C113.998 201.887 111.633 202.34 109.204 202.34C106.776 202.34 104.409 201.887 102.169 200.992C99.8511 200.067 97.7718 198.706 95.9872 196.949C94.2027 195.191 92.8197 193.142 91.8808 190.86C90.9718 188.654 90.5116 186.324 90.5116 183.933C90.5116 181.541 90.9717 179.21 91.8808 177.005C92.8197 174.722 94.2027 172.674 95.9872 170.916C97.6425 169.285 99.5589 167.993 101.682 167.075C103.507 166.286 105.432 165.794 107.42 165.609L108.079 166.258C108.306 169.855 109.513 173.405 111.698 176.485L106.656 185.173L103.726 180.362L96.4436 192.315H102.512H111.009H121.933L114.695 179.842C118.244 183.031 122.659 184.764 127.151 185.04L127.811 185.69C127.624 187.646 127.124 189.543 126.323 191.34Z" fill="url(#paint0_linear)" fill-opacity="0.5" style="mix-blend-mode:multiply"/>
</g>
<g opacity="0.5">
<path d="M91.3838 67.9347L81.4308 79.4104L80.5239 80.4561L70.5709 91.9318L91.8914 109.865L101.844 98.389L102.751 97.3432L112.704 85.8675L91.3838 67.9347ZM91.7423 108.008L72.4557 91.7857L81.5404 81.3111L100.827 97.5333L91.7423 108.008ZM82.4474 80.2654L91.5321 69.7908L110.819 86.0129L101.734 96.4875L82.4474 80.2654L82.4474 80.2654Z" fill="white" fill-opacity="0.5"/>
<path d="M93.8822 79.4392L94.3242 76.8327L87.9981 78.9231L90.1741 80.7533L93.2208 83.316L97.1346 86.6079L98.8589 77.6799L93.8822 79.4392ZM90.6608 79.4313L92.6407 78.7738L92.4401 79.9526L91.6216 80.2394L90.6608 79.4313ZM92.7914 81.2234L97.1103 79.696L96.2539 84.1356L92.7914 81.2234Z" fill="white" fill-opacity="0.5"/>
<path d="M95.7641 87.1809L87.6405 80.3481C87.3623 80.1141 86.9377 80.147 86.6976 80.4239C86.4607 80.697 86.494 81.1152 86.7722 81.3492L94.8958 88.1821C95.1769 88.4185 95.5971 88.3819 95.8341 88.1087C96.0742 87.8319 96.0452 87.4174 95.7641 87.1809Z" fill="white" fill-opacity="0.5"/>
<path d="M77.6668 91.8476C77.3887 91.6137 76.9669 91.6433 76.7268 91.9201C76.4867 92.1969 76.5233 92.6115 76.8014 92.8454C77.0825 93.0819 77.504 93.0526 77.7441 92.7758C77.9843 92.4989 77.9479 92.0841 77.6668 91.8476Z" fill="white" fill-opacity="0.5"/>
<path d="M79.6969 93.5548C79.4195 93.3215 78.9977 93.351 78.7576 93.6278C78.5175 93.9047 78.554 94.3192 78.8315 94.5526C79.1126 94.789 79.5341 94.7598 79.7742 94.4829C80.0143 94.2061 79.978 93.7912 79.6969 93.5548Z" fill="white" fill-opacity="0.5"/>
<path d="M81.7313 95.2652C81.4503 95.0288 81.0284 95.0583 80.7883 95.3352C80.5483 95.612 80.5848 96.0265 80.8659 96.263C81.1433 96.4963 81.5648 96.4671 81.8049 96.1902C82.0451 95.9134 82.0087 95.4985 81.7313 95.2652Z" fill="white" fill-opacity="0.5"/>
<path d="M83.7597 96.9725C83.4786 96.736 83.0567 96.7656 82.8167 97.0424C82.5766 97.3192 82.6131 97.7338 82.8943 97.9703C83.1709 98.2029 83.5924 98.1737 83.8325 97.8969C84.0726 97.62 84.0363 97.2052 83.7597 96.9725Z" fill="white" fill-opacity="0.5"/>
<path d="M85.7904 98.6804C85.5093 98.444 85.0904 98.4761 84.8504 98.7529C84.6103 99.0297 84.6439 99.4418 84.925 99.6782C85.206 99.9146 85.6231 99.8817 85.8632 99.6048C86.1033 99.3279 86.0715 98.9168 85.7904 98.6804Z" fill="white" fill-opacity="0.5"/>
<path d="M83.2501 94.8122L87.1639 98.1042L88.8852 89.1794L83.9082 90.9392L84.3534 88.329L78.0273 90.4194L80.2033 92.2496L83.25 94.8123L83.2501 94.8122ZM86.2803 95.6353L82.8178 92.723L87.1363 91.196L86.2803 95.6353ZM80.6872 90.9309L82.6668 90.2738L82.4694 91.449L81.648 91.7391L80.6872 90.931L80.6872 90.9309Z" fill="white" fill-opacity="0.5"/>
<path d="M106.169 89.0589C106.14 88.6978 105.817 88.4263 105.45 88.4547L102.121 88.716L102.017 87.4044C101.988 87.0432 101.665 86.7717 101.298 86.8001C100.932 86.8286 100.659 87.1427 100.685 87.5076L100.841 89.4714C100.873 89.8351 101.193 90.104 101.56 90.0756L105.555 89.7664C105.922 89.7379 106.198 89.4201 106.169 89.0589Z" fill="white" fill-opacity="0.5"/>
<path d="M90.9417 100.885C90.9735 101.249 91.2904 101.521 91.66 101.49L91.663 101.492L92.9919 101.386L93.0967 102.698C93.1256 103.059 93.4484 103.331 93.8151 103.302C94.1819 103.274 94.4547 102.959 94.4287 102.595L94.321 101.286L95.653 101.183C96.0197 101.155 96.2954 100.837 96.2662 100.476C96.2374 100.115 95.9146 99.8435 95.5478 99.8719L94.2162 99.9747L94.1141 98.6659L94.1111 98.6634C94.0823 98.3023 93.7625 98.0333 93.3927 98.0592C93.0263 98.0873 92.7506 98.4051 92.7795 98.7663L92.8843 100.078L91.5552 100.178C91.1856 100.21 90.9128 100.524 90.9417 100.885Z" fill="white" fill-opacity="0.5"/>
</g>
<g opacity="0.5">
<g opacity="0.5">
<path d="M404.792 202.829L405.6 200.833L405.87 200.168L406.139 199.504C404.294 198.778 403.398 196.696 404.141 194.863C404.885 193.029 406.99 192.127 408.835 192.852L409.104 192.187L409.374 191.522L410.182 189.527L408.603 178.112L400.164 177.88L399.886 182.396L384.495 176.347L376.948 194.97L392.338 201.019L389.383 204.483L395.665 210.036L404.792 202.829ZM391.392 204.335L393.438 201.939L394.735 200.418L392.878 199.688L378.826 194.165L385.295 178.203L399.347 183.726L401.203 184.456L401.326 182.474L401.519 179.348L407.339 179.508L408.701 189.354L407.957 191.19C405.79 191.001 403.658 192.228 402.803 194.337C401.948 196.446 402.637 198.781 404.341 200.114L403.597 201.949L395.725 208.166L391.392 204.335Z" fill="white" fill-opacity="0.5" style="mix-blend-mode:multiply"/>
</g>
<g opacity="0.5">
<path d="M393.578 189.486L396.126 189.069L392.261 184.025L391.234 186.559L389.796 190.106L387.948 194.667L396.728 193.417L393.578 189.486ZM392.646 186.901L393.525 188.047L392.553 188.206L392.264 187.845L392.646 186.901L392.646 186.901ZM391.643 189.377L394.031 192.357L390.215 192.901L391.643 189.377Z" fill="white" fill-opacity="0.5" style="mix-blend-mode:multiply"/>
</g>
</g>
<g clip-path="url(#clip0)">
<path d="M465.07 252.309L454.91 241.932L462.61 234.068C464.145 232.501 464.145 229.96 462.61 228.393C461.842 227.609 460.837 227.217 459.831 227.217C458.826 227.217 457.819 227.609 457.052 228.393L449.352 236.257L439.191 225.88L433.634 231.555L443.794 241.932L434.943 250.971V256.647H440.501L449.352 247.607L459.513 257.984L465.07 252.309ZM453.983 240.986L452.598 239.571L458.446 233.599L459.831 235.014L453.983 240.986ZM457.979 229.338C458.474 228.833 459.131 228.555 459.831 228.555C460.531 228.555 461.189 228.833 461.684 229.338C462.705 230.382 462.705 232.079 461.684 233.122L460.757 234.068L457.052 230.284L457.979 229.338ZM456.126 231.23L457.519 232.653L451.672 238.625L450.278 237.203L456.126 231.23ZM439.191 227.771L441.016 229.635L440.089 230.581C439.834 230.842 439.834 231.266 440.089 231.527C440.346 231.788 440.76 231.788 441.016 231.527C441.016 231.527 441.016 231.526 441.017 231.526L441.942 230.581L443.795 232.473L442.869 233.419C442.613 233.68 442.613 234.104 442.869 234.365C443.124 234.626 443.539 234.626 443.795 234.365C443.795 234.364 443.795 234.364 443.795 234.364L444.721 233.419L446.574 235.311L445.648 236.256C445.648 236.256 445.647 236.256 445.647 236.257C445.392 236.518 445.392 236.941 445.647 237.202C445.903 237.464 446.318 237.464 446.574 237.202V237.203L447.5 236.257L449.352 238.148L448.426 239.094C448.17 239.356 448.17 239.779 448.426 240.04C448.681 240.301 449.096 240.301 449.352 240.04L450.278 239.094L452.13 240.986L451.205 241.932C450.948 242.193 450.948 242.617 451.205 242.878C451.46 243.139 451.875 243.139 452.13 242.878C452.131 242.877 452.131 242.877 452.131 242.877L453.057 241.932L454.91 243.824L453.983 244.769V244.77C453.728 245.031 453.728 245.454 453.983 245.716C454.239 245.977 454.654 245.977 454.91 245.716L455.836 244.77L457.688 246.662L456.762 247.607C456.506 247.869 456.506 248.292 456.762 248.553C457.017 248.814 457.432 248.815 457.688 248.553C457.688 248.553 457.688 248.553 457.688 248.553L458.614 247.607L460.466 249.499L459.542 250.445L459.541 250.445C459.284 250.706 459.284 251.13 459.541 251.391C459.797 251.652 460.211 251.652 460.466 251.391L461.393 250.445L463.218 252.309L459.513 256.092L435.486 231.555L439.191 227.771ZM436.253 255.309V254.201L437.339 255.309H436.253ZM439.958 255.309H439.19L436.253 252.309V251.526L444.721 242.878L446.114 244.301L439.579 250.976C439.323 251.237 439.323 251.66 439.579 251.922C439.834 252.183 440.249 252.183 440.505 251.922L447.041 245.247L448.426 246.661L439.958 255.309Z" fill="white" fill-opacity="0.5"/>
</g>
<g clip-path="url(#clip1)">
<g opacity="0.5">
<path d="M270.941 102.124L260.781 91.747L268.481 83.883C270.016 82.3159 270.016 79.7748 268.481 78.2077C267.713 77.4239 266.708 77.032 265.702 77.032C264.697 77.032 263.691 77.4239 262.923 78.2077L255.223 86.0717L245.063 75.6946L239.505 81.3699L249.666 91.747L240.814 100.786V106.462H246.372L255.223 97.4223L265.384 107.799L270.941 102.124ZM259.854 90.801L258.469 89.3863L264.317 83.4142L265.702 84.8289L259.854 90.801ZM263.85 79.1532C264.345 78.6481 265.002 78.3699 265.702 78.3699C266.402 78.3699 267.06 78.6481 267.555 79.1532C268.576 80.1966 268.576 81.894 267.555 82.937L266.628 83.883L262.923 80.0991L263.85 79.1532ZM261.997 81.0451L263.39 82.4682L257.543 88.4403L256.149 87.0176L261.997 81.0451ZM245.063 77.5866L246.887 79.4501L245.96 80.396C245.705 80.6571 245.705 81.0809 245.96 81.342C246.217 81.6031 246.631 81.6031 246.887 81.342C246.887 81.342 246.887 81.3415 246.888 81.341L247.813 80.396L249.666 82.288L248.74 83.2339C248.484 83.495 248.484 83.9188 248.74 84.1799C248.995 84.441 249.41 84.441 249.666 84.1799C249.666 84.1794 249.666 84.1794 249.666 84.1794L250.592 83.2339L252.445 85.1258L251.519 86.0708C251.519 86.0708 251.518 86.0713 251.518 86.0718C251.263 86.3329 251.263 86.7562 251.518 87.0173C251.774 87.2789 252.189 87.2789 252.445 87.0173V87.0178L253.371 86.0718L255.223 87.9632L254.297 88.9091C254.041 89.1707 254.041 89.594 254.297 89.8551C254.553 90.1162 254.967 90.1162 255.223 89.8551L256.149 88.9091L258.002 90.801L257.076 91.747C256.82 92.0081 256.82 92.4319 257.076 92.693C257.331 92.9541 257.746 92.9541 258.002 92.693C258.002 92.6925 258.002 92.6925 258.002 92.6925L258.928 91.747L260.781 93.6389L259.854 94.5844V94.5849C259.599 94.846 259.599 95.2692 259.854 95.5308C260.11 95.7919 260.525 95.7919 260.781 95.5308L261.707 94.5849L263.559 96.4768L262.633 97.4223C262.377 97.6839 262.377 98.1071 262.633 98.3682C262.889 98.6293 263.303 98.6298 263.559 98.3682C263.559 98.3682 263.559 98.3682 263.559 98.3677L264.485 97.4223L266.337 99.3142L265.413 100.26L265.412 100.26C265.156 100.521 265.156 100.945 265.412 101.206C265.668 101.467 266.082 101.467 266.337 101.206L267.264 100.26L269.089 102.124L265.384 105.907L241.357 81.3699L245.063 77.5866ZM242.124 105.124V104.016L243.21 105.124H242.124ZM245.829 105.124H245.062L242.124 102.124V101.341L250.592 92.693L251.985 94.116L245.45 100.791C245.194 101.052 245.194 101.476 245.45 101.737C245.705 101.998 246.12 101.998 246.376 101.737L252.912 95.0621L254.297 96.4764L245.829 105.124Z" fill="white" fill-opacity="0.5" style="mix-blend-mode:multiply"/>
</g>
</g>
<g opacity="0.5">
<g opacity="0.5">
<path d="M183.372 283.114L177.531 288.686C177.262 288.943 177.255 289.365 177.515 289.629C177.776 289.895 178.205 289.902 178.474 289.645L184.316 284.074C184.585 283.817 184.591 283.395 184.33 283.129C184.071 282.865 183.641 282.858 183.372 283.114Z" fill="white" fill-opacity="0.5" style="mix-blend-mode:multiply"/>
</g>
<g opacity="0.5">
<path d="M176.587 287.727L178.534 285.87C178.803 285.613 178.81 285.191 178.55 284.926C178.29 284.661 177.861 284.655 177.592 284.912L175.645 286.769C175.376 287.025 175.369 287.447 175.629 287.712C175.89 287.977 176.318 287.983 176.587 287.727Z" fill="white" fill-opacity="0.5" style="mix-blend-mode:multiply"/>
</g>
<g opacity="0.5">
<path d="M190.647 273.807L188.305 273.19L189.672 278.966L191.527 277.197L194.122 274.721L197.461 271.537L189.463 269.254L190.647 273.807ZM190.448 276.367L190.138 275.054L191.03 275.289L191.139 275.707L190.448 276.367ZM192.26 274.638L191.365 271.186L194.84 272.178L192.26 274.638Z" fill="white" style="mix-blend-mode:multiply"/>
</g>
<g opacity="0.5">
<path d="M186.661 257.679L164.267 279.037C163.998 279.294 163.991 279.716 164.252 279.981L177.454 293.405C177.714 293.669 178.143 293.676 178.412 293.42L200.806 272.061C201.074 271.805 201.081 271.382 200.821 271.118L187.619 257.694C187.359 257.429 186.929 257.423 186.661 257.679ZM186.162 260.014L182.09 274.76C182.057 274.877 181.87 275.056 181.75 275.085L166.649 278.624L186.162 260.014ZM177.955 291.996L166.247 280.091L182.063 276.383C182.363 276.313 182.656 276.141 182.894 275.914C183.133 275.686 183.317 275.403 183.398 275.111L187.664 259.658L199.376 271.566L177.955 291.996Z" fill="white" fill-opacity="0.5" style="mix-blend-mode:multiply"/>
</g>
</g>
<g opacity="0.5">
<path d="M297.408 14.593C297.408 6.53326 290.806 0 282.66 0C279.974 0 277.456 0.710735 275.286 1.95264C273.116 0.710821 270.598 0 267.913 0C259.767 0 253.164 6.53326 253.164 14.593C253.164 20.0381 256.178 24.7857 260.644 27.2934C261.521 34.5249 267.741 40.1309 275.286 40.1309C282.831 40.1309 289.052 34.5249 289.928 27.2934C294.394 24.7857 297.408 20.0381 297.408 14.593ZM262.67 28.2361C264.299 28.8493 266.065 29.186 267.913 29.186C270.598 29.186 273.116 28.4752 275.286 27.2333C277.456 28.4752 279.974 29.186 282.66 29.186C284.507 29.186 286.273 28.8492 287.903 28.2361C287.734 29.0116 287.492 29.7705 287.177 30.5073C286.528 32.0277 285.596 33.3939 284.411 34.5669C283.225 35.74 281.845 36.6612 280.309 37.3045C278.718 37.9699 277.029 38.3073 275.286 38.3073C273.543 38.3073 271.854 37.9699 270.263 37.3045C268.727 36.6613 267.347 35.74 266.161 34.5669C264.976 33.3939 264.044 32.0278 263.395 30.5073C263.08 29.7705 262.838 29.0116 262.67 28.2361ZM288.177 26.1398C288.013 26.216 287.849 26.2894 287.683 26.3595C286.093 27.0249 284.403 27.3623 282.66 27.3623C280.917 27.3623 279.227 27.025 277.638 26.3595C277.426 26.2707 277.218 26.1765 277.012 26.0776C280.337 23.4937 282.513 19.5263 282.652 15.0512C283.277 15.4821 283.865 15.9685 284.411 16.5089C285.596 17.6819 286.528 19.048 287.178 20.5678C287.85 22.141 288.19 23.813 288.19 25.5379C288.19 25.7396 288.186 25.94 288.177 26.1398ZM280.802 13.9911C280.811 14.1908 280.817 14.3913 280.817 14.593C280.817 16.3178 280.476 17.9899 279.804 19.5624C279.153 21.0828 278.223 22.449 277.037 23.622C276.493 24.1605 275.909 24.6448 275.286 25.0737C274.664 24.6448 274.079 24.1605 273.535 23.622C272.349 22.449 271.419 21.0829 270.768 19.5624C270.096 17.9899 269.756 16.3178 269.756 14.593C269.756 14.3913 269.761 14.1908 269.77 13.9911C269.932 13.9149 270.097 13.8415 270.263 13.7713C271.854 13.106 273.543 12.7686 275.286 12.7686C277.029 12.7686 278.718 13.1059 280.309 13.7713C280.475 13.8415 280.64 13.9149 280.802 13.9911ZM275.286 10.9449C273.44 10.9449 271.673 11.2816 270.045 11.8948C270.213 11.1193 270.454 10.3604 270.768 9.62357C271.419 8.10317 272.349 6.73702 273.535 5.56395C274.079 5.02551 274.664 4.5412 275.286 4.11229C275.909 4.5412 276.493 5.02551 277.037 5.56395C278.223 6.73702 279.153 8.10308 279.804 9.62357C280.119 10.3604 280.36 11.1193 280.528 11.8948C278.899 11.2816 277.132 10.9449 275.286 10.9449ZM267.921 15.0512C268.06 19.5263 270.235 23.4937 273.561 26.0776C273.354 26.1765 273.146 26.2707 272.934 26.3595C271.345 27.0249 269.656 27.3623 267.913 27.3623C266.17 27.3623 264.479 27.025 262.89 26.3595C262.724 26.2894 262.559 26.2159 262.396 26.1398C262.386 25.94 262.382 25.7396 262.382 25.5379C262.382 23.813 262.722 22.141 263.395 20.5685C264.044 19.0481 264.976 17.6819 266.161 16.5089C266.707 15.9685 267.295 15.4821 267.921 15.0512ZM273.561 3.10835C270.559 5.43979 268.496 8.89744 268.019 12.8374C263.678 15.2744 260.71 19.8276 260.546 25.0797C259.921 24.6488 259.333 24.1624 258.788 23.622C257.601 22.449 256.671 21.0829 256.021 19.5624C255.349 17.9899 255.007 16.3178 255.007 14.593C255.007 12.8681 255.349 11.196 256.021 9.62357C256.671 8.10317 257.601 6.73702 258.788 5.56395C259.973 4.39088 261.353 3.46971 262.89 2.82635C264.479 2.16102 266.169 1.82361 267.913 1.82361C269.656 1.82361 271.345 2.16094 272.934 2.82635C273.146 2.91528 273.354 3.00942 273.561 3.10835ZM294.551 9.62357C295.224 11.1961 295.565 12.8681 295.565 14.593C295.565 16.3178 295.224 17.9899 294.551 19.5624C293.902 21.0828 292.971 22.449 291.785 23.622C291.239 24.1624 290.652 24.6488 290.026 25.0797C289.862 19.8276 286.894 15.2744 282.553 12.8374C282.076 8.89744 280.013 5.43971 277.012 3.10835C277.218 3.00951 277.426 2.91528 277.638 2.82644C279.227 2.16111 280.917 1.8237 282.66 1.8237C284.403 1.8237 286.093 2.16102 287.683 2.82644C289.219 3.46971 290.599 4.39096 291.785 5.56403C292.971 6.73702 293.902 8.10317 294.551 9.62357Z" fill="white" fill-opacity="0.5" style="mix-blend-mode:multiply"/>
</g>
<path d="M169.39 46.9036L177.943 52.6975L181.608 55.1806L190.161 60.9751L211.555 32.9253L188.342 17.1989L169.39 46.9036ZM171.402 46.4938L172.982 44.0191L180.464 49.0879L178.783 51.4941L171.402 46.4938ZM180.006 52.3222L183.368 47.5097L184.589 48.3373L181.227 53.1498L180.006 52.3222ZM182.449 53.9773L184.13 51.571L191.613 56.6404L189.83 58.9775L182.449 53.9773ZM209.441 33.2665L192.504 55.4716L184.97 50.3677L186.651 47.9614C186.883 47.6292 186.798 47.1751 186.461 46.9465C186.124 46.718 185.662 46.8017 185.43 47.1339C185.662 46.8017 185.576 46.347 185.239 46.1184C184.901 45.8898 184.44 45.9741 184.208 46.3064C184.44 45.9741 184.355 45.5194 184.017 45.2909C183.68 45.0623 183.218 45.146 182.986 45.4783L181.305 47.8845L173.772 42.7812L188.774 19.2653L209.441 33.2665Z" fill="white" fill-opacity="0.5"/>
<path d="M187.142 40.021L193.61 36.952L193.383 40.5346L201.627 36.8339L198.426 34.6659L193.947 31.6311L188.186 27.7287L187.142 40.021ZM198.627 36.5754L195.017 38.1958L195.141 36.2248L196.887 35.3969L198.627 36.5754L198.627 36.5754ZM195.48 34.4433L188.836 37.5958L189.451 30.359L195.48 34.4433Z" fill="white" fill-opacity="0.5"/>
<g opacity="0.5" clip-path="url(#clip2)">
<path d="M473.552 173.866C473.552 171.287 471.429 169.196 468.81 169.196C468.459 169.196 468.118 169.234 467.789 169.305L464.646 166.209L473.175 157.809C474.652 156.355 474.652 153.996 473.175 152.541C472.437 151.814 471.469 151.45 470.5 151.45C469.532 151.45 468.564 151.814 467.825 152.541L459.295 160.94L449.581 151.374C449.089 150.889 448.443 150.646 447.798 150.646C447.152 150.646 446.506 150.889 446.014 151.374C445.029 152.344 445.029 153.916 446.014 154.886L455.729 164.453L446.54 173.502V178.77H451.891L461.079 169.722L464.194 172.789C464.111 173.135 464.067 173.495 464.067 173.866C464.067 179.155 471.987 179.574 474.606 179.574C477.225 179.574 473.552 176.445 473.552 173.866ZM470.5 152.691C471.174 152.691 471.807 152.95 472.283 153.419C473.267 154.387 473.267 155.963 472.283 156.932L471.392 157.809L467.825 154.297L468.716 153.419C469.193 152.95 469.826 152.691 470.5 152.691ZM446.906 154.008C446.414 153.524 446.414 152.736 446.906 152.252C447.144 152.017 447.461 151.888 447.798 151.888C448.134 151.888 448.451 152.017 448.69 152.252L458.404 161.818L456.621 163.575L446.906 154.008ZM447.802 177.529V176.5L448.846 177.529H447.802ZM451.368 177.529H450.63L447.802 174.744V174.016L466.934 155.175L468.275 156.496L451.003 173.505C450.756 173.748 450.756 174.141 451.003 174.384C451.248 174.626 451.649 174.626 451.894 174.384L469.166 157.374L470.5 158.687L451.368 177.529ZM461.971 168.844L463.754 167.087L466.497 169.788C465.75 170.2 465.128 170.803 464.701 171.532L461.971 168.844ZM468.757 177.526C467.661 177.162 466.815 176.688 466.244 176.117C465.628 175.502 465.329 174.765 465.329 173.866C465.329 172.95 465.69 172.089 466.348 171.442C467.006 170.794 467.879 170.438 468.81 170.438C470.73 170.438 472.291 171.976 472.291 173.866C472.291 175.28 473.056 176.658 473.671 177.766C473.763 177.932 473.873 178.131 473.975 178.324C472.617 178.289 470.561 178.125 468.757 177.526Z" fill="white" style="mix-blend-mode:multiply"/>
</g>
<g clip-path="url(#clip3)">
<g opacity="0.5">
<path d="M25.1686 276.393L80.9322 291.953L84.3261 280.161L28.5611 264.6L25.1686 276.393ZM79.5026 289.432L75.57 288.333L76.1365 286.368C76.2916 285.825 75.9716 285.261 75.421 285.106C74.8698 284.954 74.2967 285.269 74.1396 285.811C74.1403 285.812 74.1403 285.812 74.1403 285.812L73.5751 287.777L69.5832 286.663L70.1485 284.698C70.3049 284.155 69.9849 283.591 69.4329 283.437C68.883 283.283 68.3079 283.598 68.1528 284.141L67.5877 286.107L63.5958 284.993L64.1603 283.027L64.161 283.027C64.3175 282.485 63.9967 281.919 63.4462 281.766C62.8942 281.612 62.3212 281.927 62.1654 282.47C62.1648 282.471 62.1648 282.471 62.1648 282.471L61.5995 284.435L57.6078 283.321L58.1737 281.357C58.3294 280.813 58.0094 280.249 57.4581 280.095C56.9076 279.942 56.3339 280.257 56.1774 280.799L55.6122 282.765L51.6204 281.651L52.1863 279.686C52.3427 279.143 52.022 278.579 51.4707 278.425C50.9194 278.27 50.3464 278.585 50.19 279.129L49.6248 281.095L45.6337 279.981L46.1988 278.015C46.3553 277.473 46.0345 276.907 45.484 276.754C44.932 276.6 44.359 276.915 44.2033 277.458C44.2026 277.459 44.2026 277.459 44.2026 277.459L43.6374 279.423L39.6455 278.309L40.2114 276.345C40.3671 275.801 40.0471 275.237 39.4958 275.083C38.9453 274.93 38.3716 275.245 38.2151 275.787C38.2151 275.787 38.2151 275.787 38.2159 275.788L37.65 277.753L33.6581 276.639L34.2227 274.675C34.2233 274.675 34.224 274.675 34.224 274.675C34.3797 274.131 34.0597 273.567 33.5084 273.413C32.9572 273.258 32.3834 273.574 32.2277 274.117L31.6618 276.082L27.7299 274.985L29.9913 267.123L81.7647 281.57L79.5026 289.432Z" fill="white" fill-opacity="0.5" style="mix-blend-mode:multiply"/>
</g>
</g>
<g opacity="0.5">
<path d="M414.123 33.0028L397.768 13.0459C397.572 12.807 397.215 12.7692 396.972 12.9626L382.875 24.1669C382.632 24.3602 382.594 24.7114 382.79 24.9503L388.691 32.1504L385.622 33.7319L385.48 33.5584C385.284 33.3195 384.927 33.282 384.684 33.4753C384.44 33.6687 384.403 34.0199 384.599 34.2588L390.288 41.2009C390.484 41.4399 390.84 41.4776 391.084 41.2843C391.327 41.0909 391.365 40.7395 391.169 40.5006L391.026 40.3265L393.244 37.7059L399.145 44.9072C399.341 45.1461 399.698 45.1839 399.941 44.9905L414.038 33.7863C414.282 33.5929 414.319 33.2418 414.123 33.0028ZM386.347 34.6172L389.412 33.0378L392.516 36.8233L390.301 39.4419L386.347 34.6173L386.347 34.6172ZM412.886 33.2685L401.432 42.3717L385.789 23.2842L397.243 14.181L412.886 33.2685ZM391.848 34.2287L384.027 24.6849L384.908 23.9846L392.73 33.5283L400.551 43.072L399.67 43.7724L391.848 34.2287Z" fill="white" fill-opacity="0.5" style="mix-blend-mode:multiply"/>
<path d="M392.644 34.312C392.887 34.1186 392.926 33.7681 392.729 33.5285C392.533 33.289 392.177 33.2518 391.934 33.4452C391.69 33.6386 391.652 33.9893 391.848 34.2289C392.044 34.4684 392.401 34.5054 392.644 34.312Z" fill="white" fill-opacity="0.5" style="mix-blend-mode:multiply"/>
<path d="M396.548 16.8826L407.213 29.8961C407.213 29.8961 407.214 29.8968 407.214 29.8974C407.41 30.1363 407.766 30.1741 408.01 29.9807C408.253 29.7874 408.291 29.436 408.095 29.197L397.429 16.1823C397.232 15.942 396.875 15.9045 396.632 16.0979C396.389 16.2912 396.351 16.6424 396.548 16.8826Z" fill="white" fill-opacity="0.5" style="mix-blend-mode:multiply"/>
<path d="M394.786 18.2836L400.474 25.2238C400.474 25.2245 400.474 25.2245 400.474 25.2245C400.671 25.4641 401.027 25.5012 401.27 25.3078C401.513 25.1145 401.551 24.7639 401.355 24.5244L395.667 17.5836C395.47 17.3434 395.113 17.3055 394.87 17.4989C394.627 17.6923 394.589 18.0434 394.786 18.2836Z" fill="white" fill-opacity="0.5" style="mix-blend-mode:multiply"/>
<path d="M393.022 19.6844L400.844 29.2276C400.844 29.2282 400.844 29.2282 400.844 29.2282C401.04 29.4678 401.396 29.5049 401.64 29.3116C401.883 29.1182 401.922 28.7674 401.725 28.5278L393.904 18.9841C393.707 18.7439 393.35 18.7061 393.107 18.8994C392.863 19.093 392.826 19.4442 393.022 19.6844Z" fill="white" fill-opacity="0.5" style="mix-blend-mode:multiply"/>
<path d="M391.262 21.0845L396.239 27.1572C396.435 27.3974 396.792 27.4352 397.035 27.2419C397.279 27.0485 397.316 26.6974 397.119 26.4571L392.143 20.3842C391.946 20.144 391.589 20.1064 391.346 20.2998C391.103 20.4931 391.065 20.8443 391.262 21.0845Z" fill="white" fill-opacity="0.5" style="mix-blend-mode:multiply"/>
<path d="M389.5 22.4852L398.743 33.7638L398.743 33.764C398.94 34.0042 399.297 34.0418 399.54 33.8484C399.783 33.655 399.821 33.3039 399.624 33.0637L390.381 21.7851C390.184 21.5449 389.827 21.507 389.584 21.7004C389.341 21.8938 389.303 22.2449 389.5 22.4852Z" fill="white" fill-opacity="0.5" style="mix-blend-mode:multiply"/>
<path d="M387.737 23.8859L390.58 27.3557C390.777 27.5959 391.134 27.6337 391.377 27.4403C391.62 27.247 391.658 26.8955 391.462 26.6553L388.618 23.1856C388.421 22.9454 388.065 22.9076 387.821 23.1009C387.578 23.2945 387.54 23.6457 387.737 23.8859Z" fill="white" fill-opacity="0.5" style="mix-blend-mode:multiply"/>
</g>
<g opacity="0.5">
<path d="M426.607 400.766L422.182 396.179L417.146 411.095L423.826 409.628L433.178 407.574L445.2 404.933L430.341 388.863L426.607 400.766ZM420.476 408.133L423.118 400.31L425.859 403.151L424.578 407.232L420.476 408.133V408.133ZM427.064 406.687L431.311 393.146L441.001 403.625L427.064 406.687Z" fill="white" fill-opacity="0.5"/>
<path d="M437.753 372.061L437.261 369.891C437.125 369.291 436.533 368.912 435.937 369.042C435.34 369.174 434.968 369.765 435.104 370.364L435.595 372.535L431.279 373.483L430.787 371.313C430.651 370.713 430.059 370.334 429.463 370.464C428.866 370.596 428.494 371.187 428.63 371.786L429.121 373.957L424.805 374.905L424.314 372.734C424.178 372.135 423.585 371.756 422.989 371.886C422.393 372.017 422.02 372.609 422.155 373.208L422.647 375.379L418.331 376.327L417.84 374.156C417.704 373.557 417.111 373.178 416.515 373.308C415.918 373.439 415.546 374.031 415.681 374.63L416.173 376.801L411.857 377.749L411.365 375.578C411.23 374.979 410.637 374.6 410.041 374.73C409.444 374.861 409.071 375.453 409.207 376.052L409.699 378.223L403.225 379.645L414.039 427.395L455.042 418.389L444.227 370.639L437.753 372.061ZM452.402 416.737L415.716 424.795L405.864 381.296L410.18 380.349L410.651 382.428C410.787 383.027 411.38 383.408 411.977 383.277C412.572 383.146 412.945 382.553 412.809 381.954L412.338 379.874L416.654 378.927L417.125 381.006C417.261 381.605 417.854 381.986 418.451 381.855C419.047 381.724 419.419 381.131 419.284 380.532L418.813 378.452L423.128 377.505L423.599 379.584C423.735 380.183 424.328 380.564 424.925 380.433C425.521 380.302 425.893 379.709 425.758 379.11L425.287 377.03L429.603 376.083L430.073 378.162C430.209 378.761 430.801 379.142 431.399 379.011C431.995 378.88 432.367 378.287 432.231 377.688L431.76 375.609L436.077 374.661L436.548 376.74C436.683 377.339 437.276 377.72 437.873 377.589C438.469 377.458 438.841 376.865 438.705 376.266L438.234 374.187L442.551 373.239L452.402 416.737Z" fill="white" fill-opacity="0.5"/>
</g>
<path d="M316.084 215.923L289.611 238.861C289.294 239.136 289.262 239.613 289.542 239.926L305.745 258.062C306.025 258.375 306.509 258.405 306.827 258.129L316.379 249.853L318.728 253.851L318.498 254.05C318.18 254.325 318.149 254.803 318.429 255.116C318.708 255.429 319.193 255.459 319.511 255.184L328.719 247.205C329.037 246.93 329.067 246.453 328.787 246.14C328.508 245.827 328.024 245.796 327.706 246.071L327.476 246.271L323.747 243.469L333.3 235.191C333.618 234.916 333.648 234.44 333.369 234.127L317.165 215.991C316.886 215.678 316.402 215.647 316.084 215.923ZM319.901 252.834L317.555 248.842L322.578 244.488L326.302 247.288L319.901 252.834L319.901 252.834ZM321.585 223.222L318.132 226.214L313.068 220.547L316.521 217.555L321.585 223.222ZM319.145 227.348L322.598 224.356L329.686 232.29L326.233 235.282L319.145 227.348ZM311.918 221.544L325.083 236.279L304.365 254.23L291.2 239.495L311.918 221.544ZM319.051 245.527L306.391 256.497L305.378 255.364L318.038 244.394L330.699 233.423L331.712 234.557L319.051 245.527Z" fill="white" fill-opacity="0.5" style="mix-blend-mode:multiply"/>
<path d="M319.119 244.462C318.839 244.149 318.355 244.118 318.037 244.394C317.719 244.67 317.688 245.146 317.968 245.459C318.248 245.772 318.732 245.803 319.05 245.528C319.368 245.252 319.398 244.775 319.119 244.462Z" fill="white" fill-opacity="0.5" style="mix-blend-mode:multiply"/>
<path d="M311.32 240.14L315.267 236.72L306.358 233.714L307.443 238.922L304.831 238.101L306.058 244.699L308.251 242.799L311.32 240.14ZM308.399 235.999L312.27 237.306L309.222 239.947L308.399 235.999ZM307.079 241.804L306.8 240.304L307.796 240.617L307.896 241.096L307.079 241.804Z" fill="white" fill-opacity="0.5" style="mix-blend-mode:multiply"/>
<path d="M297.828 237.772L296.677 238.769L297.69 239.903L298.841 238.906L297.828 237.772Z" fill="white" fill-opacity="0.5" style="mix-blend-mode:multiply"/>
<path d="M304.157 232.288L303.006 233.285L304.019 234.419L305.17 233.422L304.157 232.288Z" fill="white" fill-opacity="0.5" style="mix-blend-mode:multiply"/>
<path d="M310.487 226.803L309.336 227.801L310.349 228.934L311.5 227.937L310.487 226.803Z" fill="white" fill-opacity="0.5" style="mix-blend-mode:multiply"/>
<path d="M314.539 231.337L313.387 232.335L314.4 233.468L315.551 232.47L314.539 231.337Z" fill="white" fill-opacity="0.5" style="mix-blend-mode:multiply"/>
<path d="M318.591 235.87L317.439 236.868L318.452 238.002L319.604 237.004L318.591 235.87Z" fill="white" fill-opacity="0.5" style="mix-blend-mode:multiply"/>
<path d="M305.931 246.84L304.781 247.837L305.794 248.971L306.944 247.974L305.931 246.84Z" fill="white" fill-opacity="0.5" style="mix-blend-mode:multiply"/>
<path d="M301.88 242.307L300.729 243.304L301.741 244.437L302.892 243.44L301.88 242.307Z" fill="white" fill-opacity="0.5" style="mix-blend-mode:multiply"/>
<path d="M312.261 241.356L311.11 242.353L312.123 243.487L313.273 242.49L312.261 241.356Z" fill="white" fill-opacity="0.5" style="mix-blend-mode:multiply"/>
<g opacity="0.5">
<path d="M495 108.353C495 115.335 489.231 121.126 481.953 121.126C474.675 121.126 468.906 115.335 468.906 108.353C468.906 101.372 474.675 95.5811 481.953 95.5811C489.231 95.5811 495 101.372 495 108.353Z" stroke="white" stroke-opacity="0.5" stroke-width="10" style="mix-blend-mode:multiply"/>
</g>
<path opacity="0.5" d="M387.061 297.894V293.408H380.137V285.503H375.356V293.408H368.432V297.894H375.356V306.141H380.137V297.894H387.061Z" fill="white" fill-opacity="0.5"/>
<g opacity="0.5">
<path d="M223.014 408.642C223.014 406.915 218.234 392.189 236.879 397.371C255.524 402.552 261.261 393.916 265.086 377.273C268.911 360.629 280.066 359.058 288.831 359.373" stroke="white" stroke-width="8" stroke-linecap="round" stroke-linejoin="round" style="mix-blend-mode:multiply"/>
</g>
<g opacity="0.5">
<path d="M485.093 51.3441C484.476 51.6537 480.075 55.94 478.597 48.5866C477.118 41.2333 473.013 40.8041 466.391 42.4691C459.77 44.134 457.219 40.5715 455.767 37.4951" stroke="white" stroke-opacity="0.5" stroke-width="8" stroke-linecap="round" stroke-linejoin="round" style="mix-blend-mode:multiply"/>
</g>
<path opacity="0.5" d="M29.2723 423.094C29.2723 428.493 24.8068 433 19.1361 433C13.4655 433 9 428.493 9 423.094C9 417.695 13.4655 413.188 19.1361 413.188C24.8068 413.188 29.2723 417.695 29.2723 423.094Z" fill="white" fill-opacity="0.5" stroke="white" stroke-width="10"/>
</g>
<defs>
<filter id="filter0_d" x="0" y="0" width="504" height="446" filterUnits="userSpaceOnUse" color-interpolation-filters="sRGB">
<feFlood flood-opacity="0" result="BackgroundImageFix"/>
<feColorMatrix in="SourceAlpha" type="matrix" values="0 0 0 0 0 0 0 0 0 0 0 0 0 0 0 0 0 0 127 0"/>
<feOffset dy="4"/>
<feGaussianBlur stdDeviation="2"/>
<feColorMatrix type="matrix" values="0 0 0 0 0 0 0 0 0 0 0 0 0 0 0 0 0 0 0.25 0"/>
<feBlend mode="normal" in2="BackgroundImageFix" result="effect1_dropShadow"/>
<feBlend mode="normal" in="SourceGraphic" in2="effect1_dropShadow" result="shape"/>
</filter>
<linearGradient id="paint0_linear" x1="129.034" y1="164.853" x2="83.3967" y2="178.512" gradientUnits="userSpaceOnUse">
<stop stop-color="white"/>
<stop offset="1" stop-color="white"/>
</linearGradient>
<clipPath id="clip0">
<rect width="31.4366" height="32.1047" fill="white" transform="translate(433.634 225.88)"/>
</clipPath>
<clipPath id="clip1">
<rect width="31.4366" height="32.1047" fill="white" transform="translate(239.505 75.6946)"/>
</clipPath>
<clipPath id="clip2">
<rect width="30.2723" height="29.8115" fill="white" transform="translate(445.276 150.204)"/>
</clipPath>
<clipPath id="clip3">
<rect width="49.2078" height="49.6053" fill="white" transform="matrix(-0.493275 -0.869873 0.87624 -0.481875 45.1504 311.631)"/>
</clipPath>
</defs>
</svg>
