<svg width="21" height="21" viewBox="0 0 21 21" fill="none" xmlns="http://www.w3.org/2000/svg">
<path d="M10.1394 21C15.7393 21 20.2788 16.299 20.2788 10.5C20.2788 4.70101 15.7393 0 10.1394 0C4.53957 0 0 4.70101 0 10.5C0 16.299 4.53957 21 10.1394 21Z" fill="#272EAE"/>
<path d="M9.15049 16.4593V11.3822H7.39893V9.36467H9.15049V7.77503C9.15049 6.04794 10.2375 5.10791 11.8246 5.10791C12.5851 5.10791 13.2382 5.16334 13.4278 5.18772V6.99241H12.3271C11.4638 6.99241 11.2971 7.39148 11.2971 7.97457V9.36467H13.2451L12.9779 11.3822H11.2971V16.4593" fill="white"/>
<mask id="mask0" mask-type="alpha" maskUnits="userSpaceOnUse" x="7" y="5" width="7" height="12">
<path d="M9.15049 16.4593V11.3822H7.39893V9.36467H9.15049V7.77503C9.15049 6.04794 10.2375 5.10791 11.8246 5.10791C12.5851 5.10791 13.2382 5.16334 13.4278 5.18772V6.99241H12.3271C11.4638 6.99241 11.2971 7.39148 11.2971 7.97457V9.36467H13.2451L12.9779 11.3822H11.2971V16.4593" fill="white"/>
</mask>
<g mask="url(#mask0)">
</g>
</svg>
