<svg width="1058" height="290" viewBox="0 0 1058 290" fill="none" xmlns="http://www.w3.org/2000/svg">
<path opacity="0.417969" d="M74.2679 32.0365V359.194" stroke="#BDC7DE" stroke-linecap="square"/>
<path opacity="0.417969" d="M155.626 32.0365V359.194" stroke="#BDC7DE" stroke-linecap="square"/>
<path opacity="0.417969" d="M235.967 32.0365V359.194" stroke="#BDC7DE" stroke-linecap="square"/>
<path opacity="0.417969" d="M637.672 32.0365V359.194" stroke="#BDC7DE" stroke-linecap="square"/>
<path opacity="0.417969" d="M316.308 32.0365V359.194" stroke="#BDC7DE" stroke-linecap="square"/>
<path opacity="0.417969" d="M718.013 32.0365V359.194" stroke="#BDC7DE" stroke-linecap="square"/>
<path opacity="0.417969" d="M396.649 32.0365V359.194" stroke="#BDC7DE" stroke-linecap="square"/>
<path opacity="0.417969" d="M799.371 32.0365V359.194" stroke="#BDC7DE" stroke-linecap="square"/>
<path opacity="0.417969" d="M557.331 32.0365V359.194" stroke="#BDC7DE" stroke-linecap="square"/>
<path opacity="0.417969" d="M960.053 32.0365V359.194" stroke="#BDC7DE" stroke-linecap="square"/>
<path opacity="0.417969" d="M1040.39 32.0365V359.194" stroke="#BDC7DE" stroke-linecap="square"/>
<path opacity="0.417969" d="M476.99 32.0365V359.194" stroke="#BDC7DE" stroke-linecap="square"/>
<path opacity="0.417969" d="M879.712 32.0365V359.194" stroke="#BDC7DE" stroke-linecap="square"/>
<path opacity="0.57381" fill-rule="evenodd" clip-rule="evenodd" d="M2.06272 167.801C15.2617 167.801 25.9616 157.101 25.9616 143.902C25.9616 130.703 15.2617 120.003 2.06272 120.003C-11.1363 120.003 -21.8362 130.703 -21.8362 143.902C-21.8362 157.101 -11.1363 167.801 2.06272 167.801Z" fill="#E86202"/>
<path opacity="0.35813" fill-rule="evenodd" clip-rule="evenodd" d="M154.1 173.902C163.087 173.902 170.372 166.617 170.372 157.631C170.372 148.644 163.087 141.359 154.1 141.359C145.114 141.359 137.829 148.644 137.829 157.631C137.829 166.617 145.114 173.902 154.1 173.902Z" fill="#EA550F"/>
<path opacity="0.35813" fill-rule="evenodd" clip-rule="evenodd" d="M313.765 117.968C319.944 117.968 324.952 112.96 324.952 106.781C324.952 100.603 319.944 95.5947 313.765 95.5947C307.587 95.5947 302.579 100.603 302.579 106.781C302.579 112.96 307.587 117.968 313.765 117.968Z" fill="#5C5C5C"/>
<path opacity="0.459748" fill-rule="evenodd" clip-rule="evenodd" d="M440.887 212.547C454.367 212.547 465.295 201.619 465.295 188.14C465.295 174.66 454.367 163.732 440.887 163.732C427.407 163.732 416.48 174.66 416.48 188.14C416.48 201.619 427.407 212.547 440.887 212.547Z" fill="#FFC000"/>
<path opacity="0.459748" fill-rule="evenodd" clip-rule="evenodd" d="M631.57 99.6637C640.276 99.6637 647.333 92.6064 647.333 83.9006C647.333 75.1949 640.276 68.1375 631.57 68.1375C622.864 68.1375 615.807 75.1949 615.807 83.9006C615.807 92.6064 622.864 99.6637 631.57 99.6637Z" fill="#FFC000"/>
<path opacity="0.408855" fill-rule="evenodd" clip-rule="evenodd" d="M754.115 40.679C765.348 40.679 774.455 31.5727 774.455 20.3395C774.455 9.10636 765.348 6.10352e-05 754.115 6.10352e-05C742.882 6.10352e-05 733.776 9.10636 733.776 20.3395C733.776 31.5727 742.882 40.679 754.115 40.679Z" fill="#FFC000"/>
<path opacity="0.35813" fill-rule="evenodd" clip-rule="evenodd" d="M873.101 122.038C881.526 122.038 888.356 115.208 888.356 106.783C888.356 98.358 881.526 91.5283 873.101 91.5283C864.676 91.5283 857.847 98.358 857.847 106.783C857.847 115.208 864.676 122.038 873.101 122.038Z" fill="#5C5C5C"/>
<path opacity="0.35813" fill-rule="evenodd" clip-rule="evenodd" d="M1041.92 114.917C1050.34 114.917 1057.17 108.088 1057.17 99.6629C1057.17 91.238 1050.34 84.4082 1041.92 84.4082C1033.49 84.4082 1026.66 91.238 1026.66 99.6629C1026.66 108.088 1033.49 114.917 1041.92 114.917Z" fill="#6D4EDA"/>
<g style="mix-blend-mode:darken" opacity="0.578656">
<path fill-rule="evenodd" clip-rule="evenodd" d="M384.954 141.359C391.693 141.359 397.157 135.895 397.157 129.155C397.157 122.415 391.693 116.952 384.954 116.952C378.214 116.952 372.75 122.415 372.75 129.155C372.75 135.895 378.214 141.359 384.954 141.359Z" fill="#E86202"/>
</g>
<g style="mix-blend-mode:darken" opacity="0.191746">
<path fill-rule="evenodd" clip-rule="evenodd" d="M544.11 183.055C548.322 183.055 551.737 179.64 551.737 175.428C551.737 171.215 548.322 167.801 544.11 167.801C539.898 167.801 536.483 171.215 536.483 175.428C536.483 179.64 539.898 183.055 544.11 183.055Z" fill="#5C5C5C"/>
</g>
<g style="mix-blend-mode:darken" opacity="0.691758">
<path fill-rule="evenodd" clip-rule="evenodd" d="M266.476 221.7C279.113 221.7 289.358 211.456 289.358 198.818C289.358 186.181 279.113 175.936 266.476 175.936C253.839 175.936 243.594 186.181 243.594 198.818C243.594 211.456 253.839 221.7 266.476 221.7Z" fill="#FFC000"/>
</g>
<path opacity="0.35813" fill-rule="evenodd" clip-rule="evenodd" d="M587.331 108.816C594.071 108.816 599.535 103.352 599.535 96.6119C599.535 89.872 594.071 84.4082 587.331 84.4082C580.592 84.4082 575.128 89.872 575.128 96.6119C575.128 103.352 580.592 108.816 587.331 108.816Z" fill="#EA550F"/>
<path opacity="0.628855" fill-rule="evenodd" clip-rule="evenodd" d="M678.859 160.682C685.599 160.682 691.063 155.219 691.063 148.479C691.063 141.739 685.599 136.275 678.859 136.275C672.119 136.275 666.655 141.739 666.655 148.479C666.655 155.219 672.119 160.682 678.859 160.682Z" fill="#E86202"/>
<path opacity="0.35813" fill-rule="evenodd" clip-rule="evenodd" d="M798.862 157.631C805.602 157.631 811.066 152.167 811.066 145.427C811.066 138.687 805.602 133.223 798.862 133.223C792.122 133.223 786.658 138.687 786.658 145.427C786.658 152.167 792.122 157.631 798.862 157.631Z" fill="#EA550F"/>
<path opacity="0.660272" fill-rule="evenodd" clip-rule="evenodd" d="M999.206 155.597C1005.95 155.597 1011.41 150.133 1011.41 143.393C1011.41 136.654 1005.95 131.19 999.206 131.19C992.466 131.19 987.002 136.654 987.002 143.393C987.002 150.133 992.466 155.597 999.206 155.597Z" fill="#9F47D0"/>
</svg>
