<svg width="40" height="36" viewBox="0 0 40 36" fill="none" xmlns="http://www.w3.org/2000/svg">
<circle cx="17.5" cy="17.5" r="17.5" fill="url(#paint0_linear)"/>
<path d="M25.5001 13.5519C21.3633 13.5519 17.9977 16.9176 17.9977 21.0544C17.9977 22.7474 18.5528 24.3471 19.6023 25.6797C19.8094 25.9435 20.0271 26.196 20.2576 26.4633L20.2702 26.478C20.9753 27.296 21.7043 28.1421 21.9765 29.1384C22.0381 29.3667 22.0468 29.8045 22.0433 30.1417V30.7148C22.0433 31.2393 22.4685 31.6645 22.993 31.6645H27.9659C28.4904 31.6645 28.9156 31.2393 28.9156 30.7148V30.135C28.9124 29.6946 28.9352 29.3732 28.9812 29.2064C29.255 28.2167 30.0629 27.2663 30.7821 26.4205L30.8131 26.384C31.0207 26.1401 31.2168 25.9098 31.3954 25.6827C32.4464 24.3494 33.0019 22.7489 33.0019 21.0544C33.0018 16.9176 29.6365 13.5519 25.5001 13.5519ZM29.9028 24.5079C29.7464 24.7068 29.562 24.9235 29.3668 25.1528L29.3285 25.1978C28.4884 26.186 27.5361 27.306 27.1502 28.7012C27.0956 28.8992 27.0349 29.1955 27.0195 29.7651H23.9409C23.9277 29.1602 23.8661 28.85 23.8097 28.641C23.4235 27.2273 22.4729 26.1243 21.709 25.2378L21.6962 25.2228C21.4803 24.9725 21.2764 24.7359 21.0952 24.5055C20.3114 23.5102 19.8971 22.3167 19.8971 21.0544C19.8971 17.9649 22.4106 15.4514 25.5001 15.4514C28.5892 15.4514 31.1023 17.9649 31.1023 21.0544C31.1023 22.3181 30.6878 23.512 29.9028 24.5079Z" fill="white"/>
<path d="M27.9657 31.9343H22.9929C22.4684 31.9343 22.0432 32.3595 22.0432 32.884C22.0432 33.4085 22.4684 33.8337 22.9929 33.8337H27.9658C28.4903 33.8337 28.9155 33.4085 28.9155 32.884C28.9155 32.3595 28.4902 31.9343 27.9657 31.9343Z" fill="white"/>
<path d="M26.7224 34.1007H24.2361C23.7116 34.1007 23.2864 34.5259 23.2864 35.0504C23.2864 35.5749 23.7116 36.0001 24.2361 36.0001H26.7224C27.2469 36.0001 27.6721 35.5749 27.6721 35.0504C27.6721 34.5259 27.2469 34.1007 26.7224 34.1007Z" fill="white"/>
<path d="M38.6044 20.1048H35.3281C34.8036 20.1048 34.3784 20.53 34.3784 21.0545C34.3784 21.579 34.8036 22.0042 35.3281 22.0042H38.6044C39.1289 22.0042 39.5541 21.579 39.5541 21.0545C39.5541 20.53 39.1289 20.1048 38.6044 20.1048Z" fill="white"/>
<path d="M16.6213 21.0545C16.6213 20.53 16.1961 20.1048 15.6716 20.1048H12.395C11.8705 20.1048 11.4453 20.53 11.4453 21.0545C11.4453 21.579 11.8705 22.0042 12.395 22.0042H15.6716C16.1961 22.0042 16.6213 21.579 16.6213 21.0545Z" fill="white"/>
<path d="M25.4997 12.1767C26.0242 12.1767 26.4494 11.7514 26.4494 11.227V7.94971C26.4494 7.42522 26.0242 7 25.4997 7C24.9752 7 24.55 7.42522 24.55 7.94971V11.227C24.55 11.7514 24.9752 12.1767 25.4997 12.1767Z" fill="white"/>
<path d="M33.1211 27.3323C32.7502 26.9614 32.1489 26.9613 31.7779 27.3322C31.407 27.7031 31.4069 28.3043 31.7778 28.6754L34.0946 30.9928C34.2801 31.1783 34.5231 31.271 34.7662 31.271C35.0092 31.271 35.2522 31.1783 35.4377 30.9929C35.8086 30.622 35.8087 30.0208 35.4378 29.6498L33.1211 27.3323Z" fill="white"/>
<path d="M17.8781 14.7757C18.0636 14.9612 18.3066 15.054 18.5497 15.054C18.7927 15.054 19.0357 14.9613 19.2211 14.7759C19.5921 14.4051 19.5921 13.8038 19.2214 13.4329L16.9055 11.1162C16.5346 10.7451 15.9334 10.7451 15.5625 11.1159C15.1915 11.4868 15.1915 12.088 15.5622 12.4589L17.8781 14.7757Z" fill="white"/>
<path d="M17.8791 27.3325L15.5622 29.6499C15.1913 30.0208 15.1915 30.6221 15.5624 30.9929C15.7477 31.1783 15.9909 31.271 16.2339 31.271C16.4769 31.271 16.72 31.1783 16.9055 30.9928L19.2224 28.6754C19.5933 28.3045 19.5932 27.7031 19.2223 27.3323C18.8514 26.9616 18.25 26.9616 17.8791 27.3325Z" fill="white"/>
<path d="M32.4496 15.054C32.6926 15.054 32.9358 14.9613 33.1213 14.7758L35.4375 12.4591C35.8084 12.0883 35.8083 11.4869 35.4374 11.1161C35.0665 10.7452 34.4652 10.7452 34.0944 11.1163L31.7781 13.4329C31.4072 13.8038 31.4074 14.4052 31.7783 14.7759C31.9635 14.9614 32.2065 15.054 32.4496 15.054Z" fill="white"/>
<defs>
<linearGradient id="paint0_linear" x1="34.545" y1="0.846431" x2="-4.74909" y2="12.428" gradientUnits="userSpaceOnUse">
<stop stop-color="#FFC000"/>
<stop offset="1" stop-color="#FF8A00"/>
</linearGradient>
</defs>
</svg>
