<svg width="41" height="35" viewBox="0 0 41 35" fill="none" xmlns="http://www.w3.org/2000/svg">
<path fill-rule="evenodd" clip-rule="evenodd" d="M3.13667 13.717C1.10883 7.5066 4.78487 0 11.3179 0H23.6919C28.1102 0 31.3636 3.68136 29.176 7.52004C27.5086 10.4458 24.7363 13.9467 20.1266 17.5V17.5C15.9276 20.7368 10.3771 35 5.07525 35V35C1.16416 35 -1.25171 30.4831 0.589651 27.0326C2.32781 23.7755 3.85545 20.1571 3.85545 17.5C3.85545 16.3774 3.58274 15.0831 3.13667 13.717Z" fill="white" fill-opacity="0.240658"/>
<path fill-rule="evenodd" clip-rule="evenodd" d="M17.0211 13.2075C17.0211 7.94495 18.7693 0 24.0319 0H34.6793C39.0975 0 42.3551 3.68078 40.1788 7.52592C38.5236 10.4505 35.7726 13.949 31.2006 17.5V17.5C27.0055 20.7582 21.6227 35 16.311 35H15.8271C11.9769 35 9.59806 30.6938 11.46 27.3237C14.1464 22.4614 17.0211 16.4912 17.0211 13.2075V13.2075Z" fill="url(#paint0_linear)"/>
<defs>
<linearGradient id="paint0_linear" x1="-4" y1="17.5" x2="30.5882" y2="47.1471" gradientUnits="userSpaceOnUse">
<stop stop-color="#FCF8C8"/>
<stop offset="1" stop-color="#D3978D"/>
</linearGradient>
</defs>
</svg>
