<svg width="100" height="100" viewBox="0 0 100 100" fill="none" xmlns="http://www.w3.org/2000/svg">
<path d="M0.465934 45.3848C-0.617186 47.4456 0.228567 49.7703 2.58192 51.1942C7.04057 54.377 16.2102 65.8663 20.749 73.9623C23.8466 79.4842 30.6479 84.904 35.8079 88.4795C38.0287 90.0384 39.2754 92.1694 39.269 94.3927V95.0021C39.269 97.763 42.4061 100.001 46.2767 100.001H83.648C87.5186 100.001 90.6557 97.763 90.6557 95.0021V89.8836C90.6343 89.4603 90.8599 89.0492 91.2791 88.7495C99.9002 83.1261 99.9985 73.7388 99.9985 73.3422V46.9658C100.085 43.3979 96.314 40.3815 91.3357 40.0367C89.4646 39.949 87.5999 40.2655 85.9843 40.9443V38.3535C86.0035 35.9525 84.2008 33.7323 81.2712 32.5493C78.3426 31.3664 74.7457 31.406 71.8695 32.6538C71.5701 30.4061 69.6776 28.4247 66.8559 27.4034C64.0332 26.3822 60.6748 26.4622 57.9547 27.617V24.8575C63.752 22.5107 67.3232 18.116 67.2986 13.3614C67.2986 5.99982 58.9319 0.0324707 48.6118 0.0324707C38.2917 0.0324707 29.9261 5.99982 29.9261 13.3614C29.9016 18.116 33.4727 22.5107 39.269 24.8575V51.6824C39.3353 53.6494 38.96 55.6103 38.157 57.4926C37.9068 58.0486 37.2685 58.4727 36.473 58.6122C35.7245 58.7472 34.9312 58.5985 34.3709 58.2187C32.5468 56.9778 30.9259 55.5927 29.5412 54.0902C25.4878 49.7649 15.2885 41.6857 8.90422 41.6857C5.31805 41.6323 2.01951 43.0784 0.465934 45.3848ZM34.5976 13.3614C34.5976 7.84021 40.8718 3.3647 48.6118 3.3647C56.3519 3.3647 62.6261 7.84021 62.6261 13.3614C62.6485 16.2123 60.9464 18.9314 57.9547 20.8228V13.3614C57.9547 9.6806 53.7719 6.69692 48.6118 6.69692C43.4518 6.69692 39.269 9.6806 39.269 13.3614V20.8228C36.2784 18.9314 34.5751 16.2123 34.5976 13.3614ZM25.6471 55.9397C27.2306 57.6528 29.0825 59.2315 31.1664 60.6463C32.8847 61.8056 35.315 62.2579 37.6085 61.8445C39.9458 61.4289 41.8223 60.1887 42.5836 58.5588C43.5501 56.3333 44.0088 54.0116 43.9404 51.6824V13.3614C43.9404 11.521 46.0318 10.0291 48.6118 10.0291C51.1919 10.0291 53.2833 11.521 53.2833 13.3614V48.3501C53.2833 49.2707 54.329 50.0166 55.6195 50.0166C56.909 50.0166 57.9547 49.2707 57.9547 48.3501V33.3555C57.9547 31.5151 60.0471 30.0233 62.6261 30.0233C65.2061 30.0233 67.2986 31.5151 67.2986 33.3555V48.3501C67.2986 49.2707 68.3443 50.0166 69.6338 50.0166C70.9243 50.0166 71.97 49.2707 71.97 48.3501V38.3535C71.97 36.5131 74.0614 35.0212 76.6414 35.0212C79.2215 35.0212 81.3129 36.5131 81.3129 38.3535V50.0166C81.3129 50.9364 82.3586 51.6824 83.648 51.6824C84.9386 51.6824 85.9843 50.9364 85.9843 50.0166V46.6844C85.9811 45.8004 86.475 44.9523 87.355 44.33C88.3184 43.6489 89.6453 43.2957 90.9989 43.3606C93.5223 43.5955 95.3891 45.1514 95.3271 46.9658V73.3422C95.3271 73.4238 95.2084 81.6732 88.1238 86.2921C86.7391 87.2233 85.9629 88.526 85.9843 89.8836V95.0021C85.9843 95.9226 84.9386 96.6686 83.648 96.6686H46.2767C44.9861 96.6686 43.9404 95.9226 43.9404 95.0021V94.3927C43.9436 91.2694 42.1848 88.2766 39.0616 86.0884C35.1044 83.3481 28.0272 77.9642 25.089 72.7229C20.2818 64.1555 10.7711 52.3238 5.88474 48.8383C4.77275 48.0458 4.40066 47.3121 4.77917 46.6592C5.62599 45.6128 7.21057 44.9821 8.90422 45.0179C12.0787 45.0179 20.6859 50.6314 25.6471 55.9397Z" fill="#333333"/>
<path d="M88.3205 71.6744C89.6111 71.6744 90.6568 70.9284 90.6568 70.0079V60.0112C90.6568 59.0914 89.6111 58.3455 88.3205 58.3455C87.031 58.3455 85.9854 59.0914 85.9854 60.0112V70.0079C85.9854 70.9284 87.031 71.6744 88.3205 71.6744V71.6744Z" fill="#333333"/>
<path d="M85.9824 81.6704C86.6015 81.6704 87.196 81.495 87.6333 81.1823C89.4104 80.0093 90.4913 78.3954 90.6539 76.6717C90.6517 75.7717 89.636 75.0403 88.3743 75.0296C87.0987 75.0121 86.037 75.7244 85.9824 76.6336C85.8071 77.4794 85.2233 78.2551 84.3305 78.8263C83.6633 79.303 83.4634 80.0192 83.8247 80.6415C84.1861 81.2647 85.0372 81.6704 85.9824 81.6704V81.6704Z" fill="#333333"/>
<path d="M50.9461 93.3344H53.2813C54.5718 93.3344 55.6175 92.5885 55.6175 91.6679C55.6175 90.7481 54.5718 90.0022 53.2813 90.0022H50.9461C49.6556 90.0022 48.6099 90.7481 48.6099 91.6679C48.6099 92.5885 49.6556 93.3344 50.9461 93.3344Z" fill="#333333"/>
<path d="M62.6257 93.3344H78.9762C80.2668 93.3344 81.3125 92.5885 81.3125 91.6679C81.3125 90.7481 80.2668 90.0022 78.9762 90.0022H62.6257C61.3362 90.0022 60.2905 90.7481 60.2905 91.6679C60.2905 92.5885 61.3362 93.3344 62.6257 93.3344Z" fill="#333333"/>
<path d="M29.9261 27.5866C30.8585 27.5866 31.701 27.1923 32.071 26.5822C32.4409 25.972 32.2677 25.2635 31.6294 24.7791C23.5365 18.6776 23.097 9.2285 30.6062 2.75777C31.1611 2.30092 31.3257 1.66559 31.037 1.09738C30.7473 0.529168 30.0491 0.117311 29.2119 0.0212112C28.3747 -0.0748886 27.5311 0.160022 27.0061 0.635183C17.999 8.39945 18.5208 19.7362 28.2239 27.0619C28.6655 27.3967 29.2814 27.5866 29.9261 27.5866Z" fill="#333333"/>
<path d="M70.416 23.1729C70.9666 23.3743 71.6081 23.4116 72.1973 23.2759C72.7875 23.1401 73.2772 22.8434 73.5595 22.4499C78.6661 15.3568 77.3531 6.7749 70.2214 0.635183C69.6974 0.160022 68.8528 -0.0748886 68.0156 0.0212112C67.1794 0.117311 66.4812 0.529168 66.1915 1.09738C65.9017 1.66559 66.0664 2.30092 66.6224 2.75777C72.5651 7.87242 73.6589 15.022 69.4045 20.9306C68.8153 21.7489 69.2687 22.7527 70.416 23.1729Z" fill="#333333"/>
</svg>
