<svg width="100" height="100" viewBox="0 0 100 100" fill="none" xmlns="http://www.w3.org/2000/svg">
<path d="M95 48.2143V8.92857C95 4.00536 91.2617 0 86.6667 0H13.3333C8.73833 0 5 4.00536 5 8.92857V35.7143C2.24333 35.7143 0 38.1179 0 41.0714V94.6429C0 97.5964 2.24333 100 5 100H41.6667C44.4233 100 46.6667 97.5964 46.6667 94.6429H60.635C62.2067 94.6429 63.655 93.875 64.6083 92.5375C65.5617 91.2 65.8717 89.5 65.4583 87.8768L62.1817 75H71.6667V94.6429C71.6667 97.5964 73.91 100 76.6667 100H95C97.7567 100 100 97.5964 100 94.6429V53.5714C100 50.6179 97.7567 48.2143 95 48.2143ZM43.3333 94.6429C43.3333 95.6268 42.585 96.4286 41.6667 96.4286H5C4.08167 96.4286 3.33333 95.6268 3.33333 94.6429V91.0714H43.3333V94.6429ZM43.3333 87.5H3.33333V48.2143H43.3333V87.5ZM43.3333 44.6429H3.33333V41.0714C3.33333 40.0875 4.08167 39.2857 5 39.2857H41.6667C42.585 39.2857 43.3333 40.0875 43.3333 41.0714V44.6429ZM62.2433 88.8161C62.3817 89.3571 62.2783 89.9232 61.96 90.3696C61.6417 90.8161 61.16 91.0714 60.635 91.0714H46.6667V87.5H61.9083L62.2433 88.8161ZM46.6667 83.9286V75H58.7267L61 83.9286H46.6667ZM71.6667 71.4286H46.6667V60.7143H71.6667V71.4286ZM71.6667 53.5714V57.1429H46.6667V41.0714C46.6667 38.1179 44.4233 35.7143 41.6667 35.7143H8.33333V8.92857C8.33333 5.975 10.5767 3.57143 13.3333 3.57143H86.6667C89.4233 3.57143 91.6667 5.975 91.6667 8.92857V48.2143H76.6667C73.91 48.2143 71.6667 50.6179 71.6667 53.5714ZM96.6667 94.6429C96.6667 95.6268 95.9183 96.4286 95 96.4286H76.6667C75.7483 96.4286 75 95.6268 75 94.6429V91.0714H96.6667V94.6429ZM96.6667 87.5H75V60.7143H96.6667V87.5ZM96.6667 57.1429H75V53.5714C75 52.5875 75.7483 51.7857 76.6667 51.7857H95C95.9183 51.7857 96.6667 52.5875 96.6667 53.5714V57.1429Z" fill="#333333"/>
</svg>
