<svg width="21" height="21" viewBox="0 0 21 21" fill="none" xmlns="http://www.w3.org/2000/svg">
<path d="M10.6199 21C16.2197 21 20.7593 16.299 20.7593 10.5C20.7593 4.70101 16.2197 0 10.6199 0C5.02005 0 0.480469 4.70101 0.480469 10.5C0.480469 16.299 5.02005 21 10.6199 21Z" fill="#D0021B"/>
<path fill-rule="evenodd" clip-rule="evenodd" d="M14.4066 7.18182C14.8537 7.30795 15.2059 7.6796 15.3254 8.15151C15.5426 9.00685 15.5426 10.7915 15.5426 10.7915C15.5426 10.7915 15.5426 12.5761 15.3254 13.4314C15.2059 13.9033 14.8537 14.2595 14.4066 14.3856C13.596 14.6148 10.346 14.6148 10.346 14.6148C10.346 14.6148 7.09598 14.6148 6.28546 14.3856C5.8383 14.2595 5.48612 13.9033 5.36659 13.4314C5.14941 12.5761 5.14941 10.7915 5.14941 10.7915C5.14941 10.7915 5.14941 9.00685 5.36659 8.15151C5.48612 7.6796 5.8383 7.30797 6.28546 7.18182C7.09598 6.95264 10.346 6.95264 10.346 6.95264C10.346 6.95264 13.5961 6.95264 14.4066 7.18182ZM9.28278 9.17105V12.4116L11.9992 10.7914L9.28278 9.17105Z" fill="white"/>
<mask id="mask0" mask-type="alpha" maskUnits="userSpaceOnUse" x="5" y="6" width="11" height="9">
<path fill-rule="evenodd" clip-rule="evenodd" d="M14.4066 7.18182C14.8537 7.30795 15.2059 7.6796 15.3254 8.15151C15.5426 9.00685 15.5426 10.7915 15.5426 10.7915C15.5426 10.7915 15.5426 12.5761 15.3254 13.4314C15.2059 13.9033 14.8537 14.2595 14.4066 14.3856C13.596 14.6148 10.346 14.6148 10.346 14.6148C10.346 14.6148 7.09598 14.6148 6.28546 14.3856C5.8383 14.2595 5.48612 13.9033 5.36659 13.4314C5.14941 12.5761 5.14941 10.7915 5.14941 10.7915C5.14941 10.7915 5.14941 9.00685 5.36659 8.15151C5.48612 7.6796 5.8383 7.30797 6.28546 7.18182C7.09598 6.95264 10.346 6.95264 10.346 6.95264C10.346 6.95264 13.5961 6.95264 14.4066 7.18182ZM9.28278 9.17105V12.4116L11.9992 10.7914L9.28278 9.17105Z" fill="white"/>
</mask>
<g mask="url(#mask0)">
</g>
</svg>
