<svg width="1201" height="837" viewBox="0 0 1201 837" fill="none" xmlns="http://www.w3.org/2000/svg">
<path d="M418.868 836.24C187.534 836.107 0.107413 648.855 0.239871 418C0.372328 187.145 188.013 0.107614 419.348 0.240347C650.682 0.37308 1200.41 119.081 1200.28 349.936C1200.15 580.791 650.202 836.373 418.868 836.24Z" fill="#181F42"/>
<g clip-path="url(#clip0)">
<path fill-rule="evenodd" clip-rule="evenodd" d="M395.212 323.97C392.512 318.527 396.456 312 402.532 312H529.404C533.823 312 537.304 315.582 536.679 319.956C534.478 335.346 525.604 370.913 489.816 407.5C460.633 437.335 485.139 466.492 508.46 484.583C515.152 489.774 511.506 503 503.037 503H402.532C396.457 503 392.512 496.473 395.212 491.03C404.97 471.365 422.864 431.965 422.864 407.5C422.864 383.035 404.97 343.635 395.212 323.97Z" fill="white" fill-opacity="0.240658"/>
<path fill-rule="evenodd" clip-rule="evenodd" d="M449.368 326.897C444.657 321.341 448.551 312 455.835 312H574.615C579.033 312 582.515 315.582 581.894 319.956C579.71 335.347 570.902 370.914 535.383 407.5C506.402 437.351 530.767 466.524 553.925 484.613C560.589 489.818 556.934 503 548.478 503H448.175C442.26 503 438.338 496.812 440.818 491.442C452.118 466.979 477.038 410.084 477.038 384.075C477.038 363.52 461.473 341.171 449.368 326.897Z" fill="url(#paint0_linear)"/>
<path d="M637.797 424H630.766L617.078 401.547V424H610.047V389.875H617.078L630.789 412.375V389.875H637.797V424ZM655.164 424.469C651.445 424.469 648.414 423.328 646.07 421.047C643.742 418.766 642.578 415.727 642.578 411.93V411.273C642.578 408.727 643.07 406.453 644.055 404.453C645.039 402.438 646.43 400.891 648.227 399.812C650.039 398.719 652.102 398.172 654.414 398.172C657.883 398.172 660.609 399.266 662.594 401.453C664.594 403.641 665.594 406.742 665.594 410.758V413.523H649.445C649.664 415.18 650.32 416.508 651.414 417.508C652.523 418.508 653.922 419.008 655.609 419.008C658.219 419.008 660.258 418.062 661.727 416.172L665.055 419.898C664.039 421.336 662.664 422.461 660.93 423.273C659.195 424.07 657.273 424.469 655.164 424.469ZM654.391 403.656C653.047 403.656 651.953 404.109 651.109 405.016C650.281 405.922 649.75 407.219 649.516 408.906H658.938V408.367C658.906 406.867 658.5 405.711 657.719 404.898C656.938 404.07 655.828 403.656 654.391 403.656ZM677.57 392.406V398.641H681.906V403.609H677.57V416.266C677.57 417.203 677.75 417.875 678.109 418.281C678.469 418.688 679.156 418.891 680.172 418.891C680.922 418.891 681.586 418.836 682.164 418.727V423.859C680.836 424.266 679.469 424.469 678.062 424.469C673.312 424.469 670.891 422.07 670.797 417.273V403.609H667.094V398.641H670.797V392.406H677.57ZM693.789 392.406V398.641H698.125V403.609H693.789V416.266C693.789 417.203 693.969 417.875 694.328 418.281C694.688 418.688 695.375 418.891 696.391 418.891C697.141 418.891 697.805 418.836 698.383 418.727V423.859C697.055 424.266 695.688 424.469 694.281 424.469C689.531 424.469 687.109 422.07 687.016 417.273V403.609H683.312V398.641H687.016V392.406H693.789ZM716.594 424C716.281 423.391 716.055 422.633 715.914 421.727C714.273 423.555 712.141 424.469 709.516 424.469C707.031 424.469 704.969 423.75 703.328 422.312C701.703 420.875 700.891 419.062 700.891 416.875C700.891 414.188 701.883 412.125 703.867 410.688C705.867 409.25 708.75 408.523 712.516 408.508H715.633V407.055C715.633 405.883 715.328 404.945 714.719 404.242C714.125 403.539 713.18 403.188 711.883 403.188C710.742 403.188 709.844 403.461 709.188 404.008C708.547 404.555 708.227 405.305 708.227 406.258H701.453C701.453 404.789 701.906 403.43 702.812 402.18C703.719 400.93 705 399.953 706.656 399.25C708.312 398.531 710.172 398.172 712.234 398.172C715.359 398.172 717.836 398.961 719.664 400.539C721.508 402.102 722.43 404.305 722.43 407.148V418.141C722.445 420.547 722.781 422.367 723.438 423.602V424H716.594ZM710.992 419.289C711.992 419.289 712.914 419.07 713.758 418.633C714.602 418.18 715.227 417.578 715.633 416.828V412.469H713.102C709.711 412.469 707.906 413.641 707.688 415.984L707.664 416.383C707.664 417.227 707.961 417.922 708.555 418.469C709.148 419.016 709.961 419.289 710.992 419.289Z" fill="#D8BD9E"/>
</g>
<defs>
<linearGradient id="paint0_linear" x1="390.541" y1="407.5" x2="564.686" y2="520.049" gradientUnits="userSpaceOnUse">
<stop stop-color="#FCF8C8"/>
<stop offset="1" stop-color="#D3978D"/>
</linearGradient>
<clipPath id="clip0">
<rect width="502" height="191" fill="white" transform="translate(407 312)"/>
</clipPath>
</defs>
</svg>
