<svg width="21" height="21" viewBox="0 0 21 21" fill="none" xmlns="http://www.w3.org/2000/svg">
<path d="M10.3797 21C15.9795 21 20.5191 16.299 20.5191 10.5C20.5191 4.70101 15.9795 0 10.3797 0C4.77981 0 0.240234 4.70101 0.240234 10.5C0.240234 16.299 4.77981 21 10.3797 21Z" fill="#1590D8"/>
<path d="M15.0081 8.47195C15.0151 8.57278 15.0151 8.67363 15.0151 8.77446C15.0151 11.85 12.7546 15.3937 8.62316 15.3937C7.35034 15.3937 6.16795 15.0119 5.17334 14.3493C5.35418 14.3709 5.52805 14.3781 5.71585 14.3781C6.76608 14.3781 7.73288 14.0108 8.50492 13.3842C7.51727 13.3625 6.68959 12.6927 6.40442 11.7708C6.54353 11.7923 6.68263 11.8068 6.8287 11.8068C7.0304 11.8068 7.23212 11.7779 7.4199 11.7275C6.39052 11.5114 5.61846 10.5751 5.61846 9.4443V9.4155C5.91753 9.58837 6.26532 9.69641 6.63392 9.7108C6.02881 9.29303 5.63238 8.57998 5.63238 7.77328C5.63238 7.34113 5.74364 6.94499 5.9384 6.59926C7.0443 8.01097 8.70662 8.93289 10.5706 9.03375C10.5358 8.86088 10.515 8.68084 10.515 8.50077C10.515 7.21869 11.5165 6.17432 12.7615 6.17432C13.4084 6.17432 13.9926 6.45522 14.403 6.90898C14.9107 6.80815 15.3976 6.61367 15.8288 6.34718C15.6619 6.88739 15.3072 7.34116 14.8412 7.62924C15.2933 7.57885 15.7314 7.44917 16.1348 7.26912C15.8289 7.73007 15.4463 8.14061 15.0081 8.47195Z" fill="white"/>
<mask id="mask0" mask-type="alpha" maskUnits="userSpaceOnUse" x="5" y="6" width="12" height="10">
<path d="M15.0081 8.47195C15.0151 8.57278 15.0151 8.67363 15.0151 8.77446C15.0151 11.85 12.7546 15.3937 8.62316 15.3937C7.35034 15.3937 6.16795 15.0119 5.17334 14.3493C5.35418 14.3709 5.52805 14.3781 5.71585 14.3781C6.76608 14.3781 7.73288 14.0108 8.50492 13.3842C7.51727 13.3625 6.68959 12.6927 6.40442 11.7708C6.54353 11.7923 6.68263 11.8068 6.8287 11.8068C7.0304 11.8068 7.23212 11.7779 7.4199 11.7275C6.39052 11.5114 5.61846 10.5751 5.61846 9.4443V9.4155C5.91753 9.58837 6.26532 9.69641 6.63392 9.7108C6.02881 9.29303 5.63238 8.57998 5.63238 7.77328C5.63238 7.34113 5.74364 6.94499 5.9384 6.59926C7.0443 8.01097 8.70662 8.93289 10.5706 9.03375C10.5358 8.86088 10.515 8.68084 10.515 8.50077C10.515 7.21869 11.5165 6.17432 12.7615 6.17432C13.4084 6.17432 13.9926 6.45522 14.403 6.90898C14.9107 6.80815 15.3976 6.61367 15.8288 6.34718C15.6619 6.88739 15.3072 7.34116 14.8412 7.62924C15.2933 7.57885 15.7314 7.44917 16.1348 7.26912C15.8289 7.73007 15.4463 8.14061 15.0081 8.47195Z" fill="white"/>
</mask>
<g mask="url(#mask0)">
</g>
</svg>
